<svg xmlns="http://www.w3.org/2000/svg" xmlns:xlink="http://www.w3.org/1999/xlink" id="Layer_1" x="0px" y="0px" viewBox="0 0 1024 1024" style="enable-background:new 0 0 1024 1024;" xml:space="preserve"><style type="text/css">	.st0{fill:#E2EDFF;}	.st1{fill:#F3FBFF;}	.st2{fill:#0080C8;}	.st3{fill:#C9DAFC;}	.st4{fill:#65B0D6;}	.st5{fill:#E85D3D;}	.st6{fill:#FFFFFF;}	.st7{fill:#3A80E4;}	.st8{clip-path:url(#SVGID_2_);}	.st9{fill:url(#SVGID_3_);}	.st10{opacity:0.6;fill:#0F054C;enable-background:new    ;}	.st11{fill:url(#SVGID_4_);}	.st12{opacity:0.43;fill:url(#SVGID_5_);enable-background:new    ;}	.st13{fill:#42E8E0;}	.st14{fill:#488CFD;}	.st15{fill:#251C72;}	.st16{fill:#3CC6DC;}	.st17{fill:url(#SVGID_6_);}	.st18{fill:url(#SVGID_7_);}	.st19{fill:url(#SVGID_8_);}	.st20{opacity:0.43;fill:#9BD1F1;enable-background:new    ;}	.st21{fill:url(#SVGID_9_);}	.st22{fill:url(#SVGID_10_);}	.st23{fill:url(#SVGID_11_);}	.st24{opacity:0.7;fill:#42E8E0;enable-background:new    ;}	.st25{fill:url(#SVGID_12_);}	.st26{fill:#4E47B2;}	.st27{fill:url(#SVGID_13_);}	.st28{fill:url(#SVGID_14_);}	.st29{fill:url(#SVGID_15_);}	.st30{opacity:0.43;fill:#3CC6DC;enable-background:new    ;}	.st31{fill:url(#SVGID_16_);}	.st32{fill:url(#SVGID_17_);}	.st33{fill:url(#SVGID_18_);}	.st34{fill:url(#SVGID_19_);}	.st35{fill:url(#SVGID_20_);}	.st36{fill:url(#SVGID_21_);}	.st37{fill:url(#SVGID_22_);}	.st38{fill:#BC421D;}	.st39{fill:url(#SVGID_23_);}	.st40{fill:#FFE2C9;}	.st41{fill:url(#SVGID_24_);}	.st42{fill:url(#SVGID_25_);}	.st43{fill:url(#SVGID_26_);}	.st44{fill:url(#SVGID_27_);}	.st45{fill:url(#SVGID_28_);}	.st46{fill:url(#SVGID_29_);}	.st47{fill:url(#SVGID_30_);}	.st48{fill:url(#SVGID_31_);}	.st49{fill:#9BD1F1;}	.st50{fill:#00BEFF;}	.st51{fill:#00DFBF;}	.st52{fill:#051A78;}	.st53{fill:#6DE0F6;}	.st54{fill:#046BFF;}	.st55{fill:#EF7E4B;}	.st56{fill:none;}</style><g id="Challenge">	<g id="_5">		<g id="_7">			<path class="st0" d="M922.2,471.3l-0.3-50.4l-61-12.4L540.3,222.7c-47.8-27.7-131.4-24.3-186.8,7.5L57.9,400.2    c-2.4,1.4-4.7,2.8-7,4.2L12,416.2V462l0,0c0.4,17.2,10.9,33.5,32.2,45.9l349.7,202.7c47.9,27.7,131.4,24.4,186.8-7.4l295.6-169.9    C907.1,515.5,922.6,492.8,922.2,471.3L922.2,471.3z"></path>			<path class="st1" d="M394.8,665.1L45.2,462.4c-47.8-27.7-41.7-76,13.6-107.8l295.6-170c55.4-31.8,139-35.2,186.8-7.4l349.6,202.7    c47.9,27.7,41.7,76-13.6,107.8l-295.6,170C526.3,689.5,442.7,692.8,394.8,665.1z"></path>		</g>	</g>	<path class="st2" d="M457.5,23.9l-10.4-6l0,0c-3.5-2.2-8.1-2.3-11.6-0.2L95.9,213.6c-7.6,4.3-12.1,12.3-12.1,21.1v247.6  c0,2.8,1.5,5.5,4,6.7l0,0l10.4,6l1.6-4.3l-3-2.8l347.4-200.4c5.1-2.9,8.2-8.3,8.2-14.1V27.6c0-0.2,0-0.3,0-0.5L457.5,23.9z"></path>	<path class="st3" d="M445.9,23.7L106.5,219.6c-7.6,4.3-12.2,12.3-12.2,21v247.6c0,4.2,3.4,7.6,7.6,7.6c1.3,0,2.6-0.3,3.8-1  l349.3-201.4c5.1-2.9,8.2-8.3,8.2-14.1V33.6c0-6.3-5.1-11.3-11.4-11.3C449.7,22.2,447.6,22.8,445.9,23.7z"></path>	<polygon class="st0" points="454.2,281.3 104.2,483.2 104.2,233.1 454.2,31.2  "></polygon>	<polygon class="st4" points="167.2,211.2 167.2,223.3 118.4,251.5 118.4,239.5  "></polygon>	<polygon class="st2" points="167.2,232.8 118.4,261 118.4,255.4 167.2,227.1  "></polygon>	<polygon class="st4" points="221.9,179.7 221.9,191.7 173.1,220 173.1,208  "></polygon>	<polygon class="st2" points="221.9,201.2 173.1,229.5 173.1,223.8 221.9,195.6  "></polygon>	<polygon class="st4" points="276.6,148.2 276.6,160.2 227.8,188.5 227.8,176.5  "></polygon>	<polygon class="st2" points="276.6,169.7 227.8,198 227.8,192.2 276.6,164.1  "></polygon>	<polygon class="st4" points="331.4,116.7 331.4,128.7 282.6,157 282.6,145  "></polygon>	<polygon class="st2" points="331.4,138.2 282.6,166.4 282.6,160.7 331.4,132.5  "></polygon>	<polygon class="st4" points="386.1,85.1 386.1,97.2 337.2,125.5 337.2,113.4  "></polygon>	<polygon class="st2" points="386.1,106.7 337.2,134.9 337.2,129.2 386.1,101  "></polygon>	<polygon class="st4" points="440.8,53.6 440.8,65.6 392,93.8 392,81.8  "></polygon>	<polygon class="st2" points="440.8,75.1 392,103.3 392,97.7 440.8,69.5  "></polygon>	<polygon class="st4" points="167.2,246 167.2,258 118.4,286.2 118.4,274.2  "></polygon>	<polygon class="st2" points="167.2,267.5 118.4,295.7 118.4,290 167.2,261.7  "></polygon>	<polygon class="st4" points="221.9,214.5 221.9,226.5 173.1,254.7 173.1,242.7  "></polygon>	<polygon class="st2" points="221.9,235.9 173.1,264.2 173.1,258.5 221.9,230.2  "></polygon>	<polygon class="st4" points="276.6,182.9 276.6,194.9 227.8,223.2 227.8,211.1  "></polygon>	<polygon class="st2" points="276.6,204.4 227.8,232.6 227.8,227 276.6,198.7  "></polygon>	<polygon class="st4" points="331.4,151.3 331.4,163.3 282.6,191.6 282.6,179.6  "></polygon>	<polygon class="st2" points="331.4,172.8 282.6,201.1 282.6,195.5 331.4,167.2  "></polygon>	<polygon class="st4" points="386.1,119.8 386.1,131.8 337.2,160.1 337.2,148.1  "></polygon>	<polygon class="st2" points="386.1,141.3 337.2,169.6 337.2,163.8 386.1,135.7  "></polygon>	<polygon class="st4" points="440.8,88.3 440.8,100.3 392,128.6 392,116.6  "></polygon>	<polygon class="st2" points="440.8,109.8 392,138.1 392,132.3 440.8,104.1  "></polygon>	<path class="st4" d="M426.2,146.4c-0.5,0.3-0.9,0.8-1.2,1.4l-2.1,4.6c-0.2,0.6-0.6,1-1.2,1.4L402,165.3c-0.7,0.4-1.1,1.2-1.2,2  l0.1,25.2c0,0.7,0.5,1,1.2,0.7l37.6-21.7c0.7-0.4,1.1-1.2,1.2-2l-0.1-26.5v-3.5c0-0.7-0.5-1-1.2-0.7L426.2,146.4z"></path>	<path class="st4" d="M373.5,176.8c-0.5,0.3-0.9,0.8-1.2,1.4l-2.1,4.6c-0.2,0.6-0.6,1-1.2,1.4l-19.8,11.4c-0.7,0.4-1.1,1.2-1.2,2  l0.1,25.2c0,0.7,0.5,1,1.2,0.7l37.6-21.7c0.7-0.4,1.1-1.2,1.2-2l-0.1-26.5v-3.5c0-0.7-0.5-1-1.2-0.7L373.5,176.8z"></path>	<path class="st4" d="M320.7,207.3c-0.5,0.3-0.9,0.8-1.2,1.4l-2.1,4.6c-0.2,0.6-0.6,1-1.2,1.4l-19.8,11.4c-0.7,0.4-1.1,1.2-1.2,2  l0.1,25.2c0,0.7,0.5,1,1.2,0.7l37.6-21.7c0.7-0.4,1.1-1.2,1.2-2l-0.1-26.5v-3.4c0-0.7-0.5-1-1.2-0.7L320.7,207.3z"></path>	<path class="st5" d="M268,237.7c-0.5,0.3-0.9,0.8-1.2,1.4l-2.1,4.6c-0.2,0.6-0.7,1-1.2,1.4l-19.7,11.4c-0.7,0.4-1.1,1.2-1.2,2  l0.1,25.2c0,0.7,0.5,1,1.2,0.7l37.6-21.7c0.7-0.4,1.1-1.2,1.2-2l-0.1-26.5v-3.4c0-0.7-0.5-1-1.2-0.7L268,237.7z"></path>	<path class="st4" d="M215.3,268.1c-0.5,0.3-0.9,0.8-1.2,1.4l-2.1,4.6c-0.3,0.5-0.7,1-1.2,1.3l-19.8,11.4c-0.7,0.4-1.1,1.2-1.2,2  l0.1,25.2c0,0.7,0.5,1,1.2,0.7l37.6-21.7c0.7-0.4,1.1-1.2,1.2-2l-0.1-26.5v-3.4c0-0.7-0.5-1-1.2-0.7L215.3,268.1z"></path>	<path class="st4" d="M426.2,196.4c-0.5,0.3-0.9,0.8-1.2,1.4l-2.1,4.6c-0.2,0.6-0.7,1-1.2,1.4L402,215.3c-0.7,0.4-1.1,1.2-1.2,2  l0.1,25.2c0,0.7,0.5,1,1.2,0.7l37.6-21.7c0.7-0.4,1.1-1.2,1.2-2l-0.1-26.5v-3.5c0-0.7-0.5-1-1.2-0.7L426.2,196.4z"></path>	<path class="st4" d="M373.5,226.8c-0.5,0.3-0.9,0.8-1.2,1.4l-2.1,4.6c-0.2,0.6-0.6,1-1.2,1.4l-19.8,11.4c-0.7,0.4-1.1,1.2-1.2,2  l0.1,25.2c0,0.7,0.5,1,1.2,0.7l37.6-21.7c0.7-0.4,1.1-1.2,1.2-2l-0.1-26.5v-3.4c0-0.7-0.5-1-1.2-0.7L373.5,226.8z"></path>	<path class="st4" d="M320.7,257.2c-0.5,0.3-0.9,0.8-1.2,1.4l-2.1,4.6c-0.2,0.6-0.6,1-1.2,1.4l-19.8,11.4c-0.7,0.4-1.1,1.2-1.2,2  l0.1,25.2c0,0.7,0.5,1,1.2,0.7l37.6-21.7c0.7-0.4,1.1-1.2,1.2-2l-0.1-26.5v-3.5c0-0.7-0.5-1-1.2-0.7L320.7,257.2z"></path>	<g>		<path class="st4" d="M268,287.7c-0.5,0.3-0.9,0.8-1.2,1.4l-2.1,4.6c-0.2,0.6-0.7,1-1.2,1.4l-19.7,11.4c-0.7,0.4-1.1,1.2-1.2,2   l0.1,25.2c0,0.7,0.5,1,1.2,0.7l37.6-21.7c0.7-0.4,1.1-1.2,1.2-2l-0.1-26.5v-3.4c0-0.7-0.5-1-1.2-0.7L268,287.7z"></path>	</g>	<path class="st4" d="M215.3,318.1c-0.5,0.3-0.9,0.8-1.2,1.4l-2.1,4.6c-0.2,0.6-0.7,1-1.2,1.4L190.9,337c-0.7,0.5-1.1,1.2-1.2,2  l0.1,25.2c0,0.7,0.5,1,1.2,0.7l37.6-21.7c0.7-0.4,1.1-1.2,1.2-2l-0.1-26.5v-3.5c0-0.7-0.5-1-1.2-0.7L215.3,318.1z"></path>	<path class="st4" d="M426.2,246.4c-0.5,0.3-0.9,0.8-1.2,1.4l-2.1,4.6c-0.2,0.6-0.6,1-1.2,1.4L402,265.3c-0.7,0.4-1.1,1.2-1.2,2  l0.1,25.2c0,0.7,0.5,1,1.2,0.7l37.6-21.6c0.7-0.4,1.1-1.2,1.2-2l-0.1-26.5v-3.4c0-0.7-0.5-1-1.2-0.7L426.2,246.4z"></path>	<path class="st4" d="M373.5,276.8c-0.5,0.3-0.9,0.8-1.2,1.4l-2.1,4.6c-0.2,0.6-0.6,1-1.2,1.4l-19.8,11.4c-0.7,0.5-1.1,1.2-1.2,2  l0.1,25.2c0,0.7,0.5,1,1.2,0.7l37.6-21.7c0.7-0.4,1.1-1.2,1.2-2l-0.1-26.5v-3.5c0-0.7-0.5-1-1.2-0.7L373.5,276.8z"></path>	<g>		<path class="st6" d="M320.7,307.2c-0.5,0.3-0.9,0.8-1.2,1.4l-2.1,4.6c-0.2,0.6-0.6,1-1.2,1.4l-19.8,11.4c-0.7,0.4-1.1,1.2-1.2,2   l0.1,25.2c0,0.7,0.5,1,1.2,0.7l37.6-21.7c0.7-0.4,1.1-1.2,1.2-2l-0.1-26.5v-3.4c0-0.7-0.5-1-1.2-0.7L320.7,307.2z"></path>	</g>	<path class="st4" d="M268,337.6c-0.5,0.3-0.9,0.8-1.2,1.4l-2.1,4.6c-0.2,0.6-0.7,1-1.2,1.4l-19.7,11.4c-0.7,0.4-1.1,1.2-1.2,2  l0.1,25.2c0,0.7,0.5,1,1.2,0.7l37.6-21.7c0.7-0.4,1.1-1.2,1.2-2l-0.1-26.5v-3.5c0-0.7-0.5-1-1.2-0.7L268,337.6z"></path>	<path class="st4" d="M215.3,368.1c-0.5,0.3-0.9,0.8-1.2,1.4l-2.1,4.6c-0.2,0.6-0.7,1-1.2,1.4L190.9,387c-0.7,0.4-1.1,1.2-1.2,2  l0.1,25.2c0,0.7,0.5,1,1.2,0.7l37.6-21.7c0.7-0.4,1.1-1.2,1.2-2l-0.1-26.6v-3.5c0-0.7-0.5-1-1.2-0.7L215.3,368.1z"></path>	<polygon class="st4" points="162.1,310.1 179.1,300.3 179.1,302.3 162.1,312.1  "></polygon>	<polygon class="st4" points="160,313.3 118.4,337.4 118.4,335.5 160,311.4  "></polygon>	<polygon class="st4" points="179.1,306 145.1,325.6 145.1,323.8 179.1,304.1  "></polygon>	<polygon class="st4" points="145.1,312.6 179.1,292.9 179.1,294.8 145.1,314.5  "></polygon>	<polygon class="st4" points="162.1,299 179.1,289.2 179.1,291.1 162.1,300.9  "></polygon>	<polygon class="st4" points="160,300.2 160,302.2 118.4,326.3 118.4,324.4  "></polygon>	<polygon class="st4" points="179.1,298.5 118.4,333.7 118.4,331.8 179.1,296.6  "></polygon>	<polygon class="st4" points="143,315.7 118.4,329.9 118.4,328 143,313.8  "></polygon>	<polygon class="st4" points="162.1,335 179.1,325.2 179.1,327.1 162.1,336.9  "></polygon>	<polygon class="st4" points="160,338.1 118.4,362.3 118.4,360.4 160,336.2  "></polygon>	<polygon class="st4" points="179.1,330.8 145.1,350.6 145.1,348.6 179.1,328.9  "></polygon>	<polygon class="st4" points="145.1,337.4 179.1,317.7 179.1,319.6 145.1,339.3  "></polygon>	<polygon class="st4" points="162.1,323.9 179.1,314.1 179.1,316 162.1,325.8  "></polygon>	<polygon class="st4" points="160,325.1 160,327 118.4,351.2 118.4,349.2  "></polygon>	<polygon class="st4" points="179.1,323.4 118.4,358.5 118.4,356.6 179.1,321.5  "></polygon>	<polygon class="st4" points="143,340.5 118.4,354.8 118.4,352.9 143,338.6  "></polygon>	<polygon class="st4" points="162.1,359.8 179.1,350 179.1,352 162.1,361.8  "></polygon>	<polygon class="st4" points="160,363 118.4,387.1 118.4,385.2 160,361.1  "></polygon>	<polygon class="st4" points="179.1,355.7 145.1,375.3 145.1,373.5 179.1,353.8  "></polygon>	<polygon class="st4" points="145.1,362.3 179.1,342.6 179.1,344.5 145.1,364.2  "></polygon>	<polygon class="st4" points="162.1,348.7 179.1,338.9 179.1,340.9 162.1,350.7  "></polygon>	<polygon class="st4" points="160,349.9 160,351.9 118.4,376 118.4,374.1  "></polygon>	<polygon class="st4" points="179.1,348.2 118.4,383.4 118.4,381.5 179.1,346.3  "></polygon>	<polygon class="st4" points="143,365.4 118.4,379.6 118.4,377.7 143,363.5  "></polygon>	<polygon class="st4" points="162.1,384.7 179.1,374.9 179.1,376.8 162.1,386.6  "></polygon>	<polygon class="st4" points="160,387.8 118.4,412 118.4,410.1 160,386  "></polygon>	<polygon class="st4" points="179.1,380.6 145.1,400.3 145.1,398.3 179.1,378.6  "></polygon>	<polygon class="st4" points="145.1,387.1 179.1,367.4 179.1,369.3 145.1,389  "></polygon>	<polygon class="st4" points="162.1,373.6 179.1,363.8 179.1,365.7 162.1,375.5  "></polygon>	<polygon class="st4" points="160,374.8 160,376.7 118.4,400.9 118.4,398.9  "></polygon>	<polygon class="st4" points="179.1,373.1 118.4,408.2 118.4,406.3 179.1,371.2  "></polygon>	<polygon class="st4" points="143,390.3 118.4,404.5 118.4,402.6 143,388.3  "></polygon>	<polygon class="st4" points="162.1,409.6 179.1,399.8 179.1,401.7 162.1,411.5  "></polygon>	<polygon class="st4" points="160,412.7 118.4,436.8 118.4,434.9 160,410.9  "></polygon>	<polygon class="st4" points="179.1,405.4 145.1,425 145.1,423.2 179.1,403.5  "></polygon>	<polygon class="st4" points="145.1,412 179.1,392.3 179.1,394.2 145.1,413.9  "></polygon>	<polygon class="st4" points="162.1,398.4 179.1,388.6 179.1,390.6 162.1,400.4  "></polygon>	<polygon class="st4" points="160,399.7 160,401.6 118.4,425.7 118.4,423.8  "></polygon>	<polygon class="st4" points="179.1,397.9 118.4,433.1 118.4,431.2 179.1,396  "></polygon>	<polygon class="st4" points="143,415.1 118.4,429.4 118.4,427.4 143,413.2  "></polygon>	<path class="st7" d="M732.5,170l-63.1-36.2l0,0c-15.3-9.1-36.5-8-59.9,5.6c-7.9,4.6-15.4,10.1-22.1,16.2l-41.1-23.7l0,0  c-22.6-15.9-55.4-15.2-91.6,5.9c-46.1,26.6-86.2,78.9-107.4,134.3c-7.1,0.2-14.9,2.5-23.1,7.4c-30,17.3-54.5,59.5-54.5,94.3  c0,0.7,0.1,1.4,0.1,2.1c-8.6,0.6-18.1,3.6-28,9.4c-38.5,22.2-69.6,76.2-69.6,120.6c0,22,7.7,37.5,20.1,44.9l0,0l0.3,0.2h0.1  l61.8,35.3l21.9-105.8l294.3-169.9c37.6-21.7,69.4-68.6,80.1-114.2L732.5,170z"></path>	<path class="st7" d="M671.7,175c-13.2,7.6-25.7,18.3-36.8,31c-15.5-49.6-62.4-65-118.2-32.7c-46.1,26.6-86.2,78.9-107.4,134.3  c-7.1,0.2-14.9,2.5-23.1,7.4c-30,17.3-54.5,59.5-54.5,94.3c0,0.7,0.1,1.4,0.1,2.1c-8.6,0.6-18.1,3.6-28,9.4  c-38.4,22.2-69.6,76.2-69.6,120.5s31.2,62.3,69.6,40.2l367.9-212.5c46.4-26.8,84.1-91.9,84.1-145.5S718.1,148.2,671.7,175z"></path>	<g>		<g>			<defs>				<path id="SVGID_1_" d="M572,165.4c-15.5,0-32.8,5.3-50.7,15.7c-42.6,24.7-82.3,74.4-103.6,129.7l-2.1,5.6l-6,0.2     c-5.9,0.2-12.2,2.2-19,6.1c-27.1,15.7-49.9,55.3-49.9,86.5c0,0.3,0,0.5,0,0.7l0.3,9.7l-8.6,0.6c-7.5,0.5-15.7,3.2-24.1,8.2     c-36,20.7-65.2,71.3-65.2,112.8c0,18.1,5.7,31.4,15.9,37.3c10.3,6,24.6,4.1,40.3-4.8l367.9-212.4     c43.8-25.4,79.5-87.1,79.5-137.8c0-22.5-7.2-39.1-20.1-46.7c-13-7.5-30.9-5.4-50.5,5.9l0,0c-12,7-23.6,16.8-34.6,29.2L631.1,224     l-4.7-15.3c-6.1-19.7-17.8-33.4-33.6-39.6C586,166.5,579.1,165.3,572,165.4z"></path>			</defs>			<clipPath id="SVGID_2_">				<use xlink:href="#SVGID_1_" style="overflow:visible;"></use>			</clipPath>			<g class="st8">									<linearGradient id="SVGID_3_" gradientUnits="userSpaceOnUse" x1="1710.3595" y1="-1812.4816" x2="1835.0889" y2="-1812.4816" gradientTransform="matrix(0.5 0.87 0.87 -0.5 1272.08 -2136.0098)">					<stop offset="0" style="stop-color:#BCBEFF"></stop>					<stop offset="0.17" style="stop-color:#B6B8FC"></stop>					<stop offset="0.4" style="stop-color:#A4A8F5"></stop>					<stop offset="0.66" style="stop-color:#868DEA"></stop>					<stop offset="0.96" style="stop-color:#5E67DA"></stop>					<stop offset="1" style="stop-color:#5761D7"></stop>				</linearGradient>				<path class="st9" d="M578.6,380.2l122.6-70.6c2.7-1.5,4-3.5,4-5.5l0,0V282l-4.2,3.7l-3.6-2.1c0.4-0.5,0.7-0.9,0.6-1l-1.8-3.1     l-86.6-51.1l-27.5-16.1l-10.7-3l-125.9,72.3l0.4,2.9l-3.3,1.9l-5.4-2.4v22l0,0c0,1.6,0.9,3,2.8,4.2l122.1,70.5     C566.3,383.2,573.7,382.9,578.6,380.2z M628.4,325.5l-55.6,30.3l-4.7-0.2l-92.7-51.9l-25.7-13.2l121-69.7     c1.1-0.6,2.5-0.7,3.7-0.1l117.8,68L628.4,325.5z"></path>				<path class="st10" d="M578.6,380.2l122.6-70.6c2.7-1.5,4-3.5,4-5.5l0,0V282l-4.2,3.7l-3.6-2.1c0.4-0.5,0.7-0.9,0.6-1l-1.8-3.1     l-86.6-51.1l-27.5-16.1l-10.7-3l-125.9,72.3l0.4,2.9l-3.3,1.9l-5.4-2.4v22l0,0c0,1.6,0.9,3,2.8,4.2l122.1,70.5     C566.3,383.2,573.7,382.9,578.6,380.2z M628.4,325.5l-55.6,30.3l-4.7-0.2l-92.7-51.9l-25.7-13.2l121-69.7     c1.1-0.6,2.5-0.7,3.7-0.1l117.8,68L628.4,325.5z"></path>				<path class="st10" d="M569.7,382.4v-26.7l3,0.1l55.6-30.3l63.9-37l-2.1-1.2c2-1.1,13.1-4.2,15.3-5.5V304l0,0     c0,1.9-1.3,3.8-4,5.5l-122.6,70.6C575.8,381.6,572.8,382.4,569.7,382.4z"></path>									<linearGradient id="SVGID_4_" gradientUnits="userSpaceOnUse" x1="1677.1703" y1="-1806.6877" x2="1814.501" y2="-1806.6877" gradientTransform="matrix(0.5 0.87 0.87 -0.5 1272.08 -2136.0098)">					<stop offset="0" style="stop-color:#BCBEFF"></stop>					<stop offset="0.17" style="stop-color:#B6B8FC"></stop>					<stop offset="0.4" style="stop-color:#A4A8F5"></stop>					<stop offset="0.66" style="stop-color:#868DEA"></stop>					<stop offset="0.96" style="stop-color:#5E67DA"></stop>					<stop offset="1" style="stop-color:#5761D7"></stop>				</linearGradient>				<path class="st11" d="M578.6,357.7l122.6-70.6c4.8-2.8,5.4-7.1,1.2-9.5l-122.1-70.5c-4.2-2.4-11.6-2.1-16.5,0.7l-122.6,70.6     c-4.8,2.8-5.4,7.1-1.2,9.5l122.1,70.4C566.3,360.9,573.7,360.6,578.6,357.7z M571.8,353.6c-1.1,0.6-2.5,0.7-3.7,0.2l-120-69.3     c-1-0.5-0.8-1.5,0.3-2.1l122.2-70.5c1.1-0.6,2.5-0.7,3.7-0.2l120,69.3c0.9,0.6,0.8,1.5-0.3,2.1L571.8,353.6z"></path>									<linearGradient id="SVGID_5_" gradientUnits="userSpaceOnUse" x1="1658.202" y1="-1806.6877" x2="1905.9697" y2="-1806.6877" gradientTransform="matrix(0.5 0.87 0.87 -0.5 1272.08 -2136.0098)">					<stop offset="0" style="stop-color:#706EC4"></stop>					<stop offset="2.000000e-02" style="stop-color:#6D6BC2"></stop>					<stop offset="0.25" style="stop-color:#5651AC"></stop>					<stop offset="0.49" style="stop-color:#463F9D"></stop>					<stop offset="0.73" style="stop-color:#3C3494"></stop>					<stop offset="1" style="stop-color:#393091"></stop>				</linearGradient>				<path class="st12" d="M578.6,357.7l122.6-70.6c4.8-2.8,5.4-7.1,1.2-9.5l-122.1-70.5c-4.2-2.4-11.6-2.1-16.5,0.7l-122.6,70.6     c-4.8,2.8-5.4,7.1-1.2,9.5l122.1,70.4C566.3,360.9,573.7,360.6,578.6,357.7z M571.8,353.6c-1.1,0.6-2.5,0.7-3.7,0.2l-120-69.3     c-1-0.5-0.8-1.5,0.3-2.1l122.2-70.5c1.1-0.6,2.5-0.7,3.7-0.2l120,69.3c0.9,0.6,0.8,1.5-0.3,2.1L571.8,353.6z"></path>				<path class="st13" d="M694.4,279.7l-119.9-69.2c-1.2-0.5-2.6-0.5-3.7,0.2l-122.3,70.5c-0.9,0.5-1.1,1.2-0.7,1.8     c0.2-0.2,0.4-0.4,0.7-0.6l122.2-70.6c1.1-0.6,2.5-0.7,3.7-0.2l120,69.3c0.2,0.1,0.3,0.2,0.4,0.4c0.3-0.4,0.3-1.1-0.2-1.4     C694.6,279.8,694.5,279.8,694.4,279.7z"></path>				<path class="st14" d="M701.2,285.9l-122.6,70.6c-4.8,2.8-12.2,3-16.5,0.7L440,286.8c-1.4-0.7-2.4-2-2.8-3.5     c-0.3,1.7,0.6,3.5,2.8,4.7l122.1,70.5c4.2,2.4,11.6,2.1,16.5-0.7l122.6-70.6c2.9-1.7,4.2-3.9,3.9-6     C705,282.8,703.6,284.5,701.2,285.9z"></path>				<path class="st15" d="M574.4,220.6c-1.2-0.5-2.6-0.5-3.7,0.1l-116.6,67.2l-6-3.4c-1-0.5-0.8-1.5,0.3-2.1l122.1-70.5     c1.1-0.6,2.5-0.7,3.7-0.2l120,69.3c0.9,0.6,0.8,1.5-0.3,2.1l-5.7,3.2L574.4,220.6z"></path>				<path class="st16" d="M694.1,283.2c1.1-0.6,1.2-1.6,0.3-2.1l-120-69.3c-1.2-0.5-2.6-0.5-3.7,0.2l-122.3,70.5     c-1.1,0.6-1.2,1.6-0.3,2.1l120,69.3c1.2,0.5,2.6,0.5,3.7-0.2L694.1,283.2z"></path>									<linearGradient id="SVGID_6_" gradientUnits="userSpaceOnUse" x1="1677.2109" y1="-1793.4929" x2="1801.9506" y2="-1793.4929" gradientTransform="matrix(0.5 0.87 0.87 -0.5 1272.08 -2136.0098)">					<stop offset="0" style="stop-color:#BCBEFF"></stop>					<stop offset="0.17" style="stop-color:#B6B8FC"></stop>					<stop offset="0.4" style="stop-color:#A4A8F5"></stop>					<stop offset="0.66" style="stop-color:#868DEA"></stop>					<stop offset="0.96" style="stop-color:#5E67DA"></stop>					<stop offset="1" style="stop-color:#5761D7"></stop>				</linearGradient>				<path class="st17" d="M578.6,341.9l122.6-70.6c2.7-1.5,4-3.5,4-5.5l0,0v-22.1l-4.2,3.7l-3.6-2.1c0.4-0.5,0.7-0.8,0.6-1l-1.8-3     l-86.6-51.1l-27.5-16.1l-10.7-3l-125.9,72.3l0.4,2.9l-3.3,1.9l-5.4-2.4v22l0,0c0,1.6,0.9,3,2.8,4.2l122.1,70.5     C566.3,345,573.7,344.7,578.6,341.9z M628.4,287.3l-55.6,30.3l-4.7-0.2l-92.7-51.9l-25.8-13.2l121-69.7c1.1-0.6,2.5-0.7,3.7-0.2     l117.8,68L628.4,287.3z"></path>									<linearGradient id="SVGID_7_" gradientUnits="userSpaceOnUse" x1="1677.2109" y1="-1793.4929" x2="1801.9506" y2="-1793.4929" gradientTransform="matrix(0.5 0.87 0.87 -0.5 1272.08 -2136.0098)">					<stop offset="0" style="stop-color:#706EC4"></stop>					<stop offset="2.000000e-02" style="stop-color:#6D6BC2"></stop>					<stop offset="0.25" style="stop-color:#5651AC"></stop>					<stop offset="0.49" style="stop-color:#463F9D"></stop>					<stop offset="0.73" style="stop-color:#3C3494"></stop>					<stop offset="1" style="stop-color:#393091"></stop>				</linearGradient>				<path class="st18" d="M578.6,341.9l122.6-70.6c2.7-1.5,4-3.5,4-5.5l0,0v-22.1l-4.2,3.7l-3.6-2.1c0.4-0.5,0.7-0.8,0.6-1l-1.8-3     l-86.6-51.1l-27.5-16.1l-10.7-3l-125.9,72.3l0.4,2.9l-3.3,1.9l-5.4-2.4v22l0,0c0,1.6,0.9,3,2.8,4.2l122.1,70.5     C566.3,345,573.7,344.7,578.6,341.9z M628.4,287.3l-55.6,30.3l-4.7-0.2l-92.7-51.9l-25.8-13.2l121-69.7c1.1-0.6,2.5-0.7,3.7-0.2     l117.8,68L628.4,287.3z"></path>				<path class="st10" d="M569.7,344.2v-26.7l3,0.2l55.6-30.3l63.9-37l-2.1-1.2c2-1.1,13.1-4.2,15.3-5.5v22.1l0,0     c0,1.9-1.3,3.8-4,5.5L578.6,342C575.8,343.4,572.8,344.1,569.7,344.2z"></path>									<linearGradient id="SVGID_8_" gradientUnits="userSpaceOnUse" x1="1644.0219" y1="-1787.674" x2="1781.3525" y2="-1787.674" gradientTransform="matrix(0.5 0.87 0.87 -0.5 1272.08 -2136.0098)">					<stop offset="0" style="stop-color:#BCBEFF"></stop>					<stop offset="0.17" style="stop-color:#B6B8FC"></stop>					<stop offset="0.4" style="stop-color:#A4A8F5"></stop>					<stop offset="0.66" style="stop-color:#868DEA"></stop>					<stop offset="0.96" style="stop-color:#5E67DA"></stop>					<stop offset="1" style="stop-color:#5761D7"></stop>				</linearGradient>				<path class="st19" d="M578.6,319.4l122.6-70.6c4.8-2.8,5.4-7.1,1.2-9.5l-122.1-70.5c-4.2-2.4-11.6-2.1-16.5,0.7l-122.6,70.6     c-4.8,2.8-5.4,7.1-1.2,9.5l122.1,70.5C566.3,322.6,573.7,322.3,578.6,319.4z M571.8,315.4c-1.1,0.6-2.5,0.7-3.7,0.2l-120-69.3     c-1-0.6-0.8-1.5,0.3-2.1l122.3-70.4c1.1-0.6,2.5-0.7,3.7-0.2l120,69.3c0.9,0.6,0.8,1.5-0.3,2.1L571.8,315.4z"></path>				<path class="st14" d="M578.6,319.4l122.6-70.6c4.8-2.8,5.4-7.1,1.2-9.5l-122.1-70.5c-4.2-2.4-11.6-2.1-16.5,0.7l-122.6,70.6     c-4.8,2.8-5.4,7.1-1.2,9.5l122.1,70.5C566.3,322.6,573.7,322.3,578.6,319.4z M571.8,315.4c-1.1,0.6-2.5,0.7-3.7,0.2l-120-69.3     c-1-0.6-0.8-1.5,0.3-2.1l122.3-70.4c1.1-0.6,2.5-0.7,3.7-0.2l120,69.3c0.9,0.6,0.8,1.5-0.3,2.1L571.8,315.4z"></path>				<path class="st13" d="M694.4,241.5l-119.9-69.3c-1.2-0.5-2.6-0.5-3.7,0.2L448.3,243c-0.9,0.5-1.1,1.2-0.7,1.8     c0.2-0.2,0.4-0.4,0.7-0.6l122.3-70.5c1.1-0.6,2.5-0.7,3.7-0.2l120,69.3c0.2,0.1,0.3,0.2,0.4,0.4c0.4-0.4,0.3-1.1-0.1-1.4     C694.6,241.6,694.5,241.5,694.4,241.5z"></path>				<path class="st13" d="M701.2,247.6l-122.6,70.7c-4.8,2.8-12.2,3-16.5,0.7L440,248.5c-1.4-0.7-2.4-2-2.8-3.5     c-0.3,1.7,0.6,3.4,2.8,4.7l122.1,70.5c4.2,2.4,11.6,2.1,16.5-0.7l122.6-70.7c2.9-1.7,4.2-3.9,3.9-6     C705,244.6,703.6,246.3,701.2,247.6z"></path>				<path class="st15" d="M574.4,182.3c-1.2-0.5-2.6-0.5-3.7,0.2l-116.6,67.2l-6-3.4c-1-0.6-0.8-1.5,0.3-2.1l122.3-70.4     c1.1-0.6,2.5-0.7,3.7-0.2l120,69.3c0.9,0.6,0.8,1.5-0.3,2.1l-5.7,3.2L574.4,182.3z"></path>				<path class="st20" d="M694.1,244.9c1.1-0.6,1.2-1.6,0.3-2.1l-120-69.3c-1.2-0.5-2.6-0.5-3.7,0.2l-122.3,70.5     c-1.1,0.6-1.2,1.6-0.3,2.1l120,69.3c1.2,0.5,2.6,0.5,3.7-0.2L694.1,244.9z"></path>									<linearGradient id="SVGID_9_" gradientUnits="userSpaceOnUse" x1="1644.0728" y1="-1774.479" x2="1768.8022" y2="-1774.479" gradientTransform="matrix(0.5 0.87 0.87 -0.5 1272.08 -2136.0098)">					<stop offset="0" style="stop-color:#BCBEFF"></stop>					<stop offset="0.17" style="stop-color:#B6B8FC"></stop>					<stop offset="0.4" style="stop-color:#A4A8F5"></stop>					<stop offset="0.66" style="stop-color:#868DEA"></stop>					<stop offset="0.96" style="stop-color:#5E67DA"></stop>					<stop offset="1" style="stop-color:#5761D7"></stop>				</linearGradient>				<path class="st21" d="M578.6,303.6L701.2,233c2.7-1.5,4-3.5,4-5.5l0,0v-22.1l-4.2,3.7l-3.6-2c0.4-0.5,0.7-0.9,0.6-1     c-0.2-0.4-1.8-3.1-1.8-3.1l-86.6-51.1l-27.5-16.1l-10.7-3l-125.9,72.3l0.4,2.9l-3.3,1.9l-5.4-2.4v22l0,0c0,1.6,0.9,3,2.8,4.2     l122.1,70.5C566.3,306.7,573.7,306.4,578.6,303.6z M628.4,249l-55.6,30.3l-4.7-0.2l-92.7-51.9L449.7,214l121-69.7     c1.1-0.6,2.5-0.7,3.7-0.1l117.8,68L628.4,249z"></path>									<linearGradient id="SVGID_10_" gradientUnits="userSpaceOnUse" x1="1644.0728" y1="-1774.479" x2="1768.8022" y2="-1774.479" gradientTransform="matrix(0.5 0.87 0.87 -0.5 1272.08 -2136.0098)">					<stop offset="0" style="stop-color:#706EC4"></stop>					<stop offset="2.000000e-02" style="stop-color:#6D6BC2"></stop>					<stop offset="0.25" style="stop-color:#5651AC"></stop>					<stop offset="0.49" style="stop-color:#463F9D"></stop>					<stop offset="0.73" style="stop-color:#3C3494"></stop>					<stop offset="1" style="stop-color:#393091"></stop>				</linearGradient>				<path class="st22" d="M578.6,303.6L701.2,233c2.7-1.5,4-3.5,4-5.5l0,0v-22.1l-4.2,3.7l-3.6-2c0.4-0.5,0.7-0.9,0.6-1     c-0.2-0.4-1.8-3.1-1.8-3.1l-86.6-51.1l-27.5-16.1l-10.7-3l-125.9,72.3l0.4,2.9l-3.3,1.9l-5.4-2.4v22l0,0c0,1.6,0.9,3,2.8,4.2     l122.1,70.5C566.3,306.7,573.7,306.4,578.6,303.6z M628.4,249l-55.6,30.3l-4.7-0.2l-92.7-51.9L449.7,214l121-69.7     c1.1-0.6,2.5-0.7,3.7-0.1l117.8,68L628.4,249z"></path>				<path class="st10" d="M569.7,305.9v-26.7l3,0.1l55.6-30.3l63.9-37l-2.1-1.2c2-1.1,13.1-4.2,15.3-5.5v22.1l0,0     c0,1.9-1.3,3.8-4,5.5l-122.6,70.6C575.8,305.1,572.8,305.9,569.7,305.9z"></path>									<linearGradient id="SVGID_11_" gradientUnits="userSpaceOnUse" x1="1610.8835" y1="-1768.7103" x2="1748.2142" y2="-1768.7103" gradientTransform="matrix(0.5 0.87 0.87 -0.5 1272.08 -2136.0098)">					<stop offset="0" style="stop-color:#BCBEFF"></stop>					<stop offset="0.17" style="stop-color:#B6B8FC"></stop>					<stop offset="0.4" style="stop-color:#A4A8F5"></stop>					<stop offset="0.66" style="stop-color:#868DEA"></stop>					<stop offset="0.96" style="stop-color:#5E67DA"></stop>					<stop offset="1" style="stop-color:#5761D7"></stop>				</linearGradient>				<path class="st23" d="M578.6,281.2l122.6-70.6c4.8-2.8,5.4-7.1,1.2-9.5l-122.1-70.5c-4.2-2.4-11.6-2.1-16.5,0.7l-122.6,70.6     c-4.8,2.8-5.4,7.1-1.2,9.5L562.1,282C566.3,284.3,573.7,284,578.6,281.2z M571.8,277.1c-1.1,0.6-2.5,0.7-3.7,0.2L448,208     c-1-0.5-0.8-1.5,0.3-2.1l122.3-70.4c1.1-0.6,2.5-0.7,3.7-0.2l120,69.3c0.9,0.5,0.8,1.5-0.3,2.1L571.8,277.1z"></path>				<path class="st14" d="M578.6,281.2l122.6-70.6c4.8-2.8,5.4-7.1,1.2-9.5l-122.1-70.5c-4.2-2.4-11.6-2.1-16.5,0.7l-122.6,70.6     c-4.8,2.8-5.4,7.1-1.2,9.5L562.1,282C566.3,284.3,573.7,284,578.6,281.2z M571.8,277.1c-1.1,0.6-2.5,0.7-3.7,0.2L448,208     c-1-0.5-0.8-1.5,0.3-2.1l122.3-70.4c1.1-0.6,2.5-0.7,3.7-0.2l120,69.3c0.9,0.5,0.8,1.5-0.3,2.1L571.8,277.1z"></path>				<path class="st13" d="M694.4,203.2L574.4,134c-1.2-0.5-2.6-0.5-3.7,0.2l-122.3,70.4c-0.9,0.5-1.1,1.2-0.7,1.8     c0.2-0.2,0.4-0.4,0.7-0.6l122.3-70.4c1.1-0.6,2.5-0.7,3.7-0.2l120,69.3c0.2,0.1,0.3,0.2,0.4,0.4c0.3-0.4,0.3-1.1-0.2-1.4     C694.6,203.4,694.5,203.4,694.4,203.2z"></path>				<path class="st13" d="M701.2,209.4L578.6,280c-4.8,2.8-12.2,3-16.5,0.7L440,210.2c-1.4-0.7-2.4-2-2.8-3.5     c-0.3,1.7,0.6,3.5,2.8,4.7L562.1,282c4.2,2.4,11.6,2.1,16.5-0.7l122.6-70.6c2.9-1.7,4.2-3.9,3.9-6     C705,206.3,703.6,208,701.2,209.4z"></path>				<path class="st15" d="M574.4,144c-1.2-0.5-2.6-0.5-3.7,0.1l-116.6,67.2l-6-3.4c-1-0.5-0.8-1.5,0.3-2.1l122.3-70.4     c1.1-0.6,2.5-0.7,3.7-0.2l120,69.3c0.9,0.5,0.8,1.5-0.3,2.1l-5.7,3.2L574.4,144z"></path>				<path class="st24" d="M694.1,206.7c1.1-0.6,1.2-1.6,0.3-2.1l-120-69.4c-1.2-0.5-2.6-0.5-3.7,0.2l-122.3,70.4     c-1.1,0.6-1.2,1.6-0.3,2.1l120,69.3c1.2,0.5,2.6,0.5,3.7-0.2L694.1,206.7z"></path>									<linearGradient id="SVGID_12_" gradientUnits="userSpaceOnUse" x1="1610.9242" y1="-1755.4718" x2="1735.6638" y2="-1755.4718" gradientTransform="matrix(0.5 0.87 0.87 -0.5 1272.08 -2136.0098)">					<stop offset="0" style="stop-color:#BCBEFF"></stop>					<stop offset="0.17" style="stop-color:#B6B8FC"></stop>					<stop offset="0.4" style="stop-color:#A4A8F5"></stop>					<stop offset="0.66" style="stop-color:#868DEA"></stop>					<stop offset="0.96" style="stop-color:#5E67DA"></stop>					<stop offset="1" style="stop-color:#5761D7"></stop>				</linearGradient>				<path class="st25" d="M578.6,265.3l122.6-70.6c2.7-1.5,4-3.5,4-5.5l0,0v-22.1l-4.2,3.7l-3.6-2.1c0.4-0.5,0.7-0.8,0.6-1l-1.8-3     l-86.6-51.1l-27.4-15.9l-10.7-3L445.6,167l0.4,2.9l-3.3,1.9l-5.4-2.4v22l0,0c0,1.6,0.9,3,2.8,4.2l122.1,70.5     C566.3,268.5,573.7,268.2,578.6,265.3z M628.4,210.7L572.8,241l-4.7-0.2l-92.7-51.9l-25.7-13.2l121-69.7     c1.1-0.6,2.5-0.7,3.7-0.2l117.8,68L628.4,210.7z"></path>				<path class="st26" d="M578.6,265.3l122.6-70.6c2.7-1.5,4-3.5,4-5.5l0,0v-22.1l-4.2,3.7l-3.6-2.1c0.4-0.5,0.7-0.8,0.6-1l-1.8-3     l-86.6-51.1l-27.4-15.9l-10.7-3L445.6,167l0.4,2.9l-3.3,1.9l-5.4-2.4v22l0,0c0,1.6,0.9,3,2.8,4.2l122.1,70.5     C566.3,268.5,573.7,268.2,578.6,265.3z M628.4,210.7L572.8,241l-4.7-0.2l-92.7-51.9l-25.7-13.2l121-69.7     c1.1-0.6,2.5-0.7,3.7-0.2l117.8,68L628.4,210.7z"></path>				<path class="st10" d="M569.7,267.7V241l3,0.2l55.6-30.3l63.9-37l-2.1-1.2c2-1.1,13.1-4.2,15.3-5.5v22.1l0,0c0,1.9-1.3,3.8-4,5.5     l-122.6,70.6C575.8,266.8,572.8,267.6,569.7,267.7z"></path>									<linearGradient id="SVGID_13_" gradientUnits="userSpaceOnUse" x1="1577.735" y1="-1749.6965" x2="1715.0659" y2="-1749.6965" gradientTransform="matrix(0.5 0.87 0.87 -0.5 1272.08 -2136.0098)">					<stop offset="0" style="stop-color:#BCBEFF"></stop>					<stop offset="0.17" style="stop-color:#B6B8FC"></stop>					<stop offset="0.4" style="stop-color:#A4A8F5"></stop>					<stop offset="0.66" style="stop-color:#868DEA"></stop>					<stop offset="0.96" style="stop-color:#5E67DA"></stop>					<stop offset="1" style="stop-color:#5761D7"></stop>				</linearGradient>				<path class="st27" d="M578.6,243l122.6-70.6c4.8-2.8,5.4-7.1,1.2-9.5L580.3,92.3c-4.2-2.4-11.6-2.1-16.5,0.7l-122.6,70.6     c-4.8,2.8-5.4,7.1-1.2,9.5l122.1,70.5C566.3,246.1,573.7,245.8,578.6,243z M571.8,238.8c-1.1,0.6-2.5,0.7-3.7,0.1l-120-69.3     c-1-0.6-0.8-1.5,0.3-2.1l122.3-70.4c1.1-0.6,2.5-0.7,3.7-0.2l120,69.3c0.9,0.6,0.8,1.5-0.3,2.1L571.8,238.8z"></path>				<path class="st14" d="M578.6,243l122.6-70.6c4.8-2.8,5.4-7.1,1.2-9.5L580.3,92.3c-4.2-2.4-11.6-2.1-16.5,0.7l-122.6,70.6     c-4.8,2.8-5.4,7.1-1.2,9.5l122.1,70.5C566.3,246.1,573.7,245.8,578.6,243z M571.8,238.8c-1.1,0.6-2.5,0.7-3.7,0.1l-120-69.3     c-1-0.6-0.8-1.5,0.3-2.1l122.3-70.4c1.1-0.6,2.5-0.7,3.7-0.2l120,69.3c0.9,0.6,0.8,1.5-0.3,2.1L571.8,238.8z"></path>				<path class="st13" d="M694.4,165.1L574.4,95.8c-1.2-0.5-2.6-0.5-3.7,0.1l-122.3,70.5c-0.9,0.5-1.1,1.2-0.7,1.8     c0.2-0.2,0.4-0.4,0.7-0.6l122.3-70.4c1.1-0.6,2.5-0.7,3.7-0.2l120,69.3c0.2,0.1,0.3,0.2,0.4,0.4c0.4-0.4,0.3-1.1-0.1-1.4     C694.6,165.1,694.5,165.1,694.4,165.1z"></path>				<path class="st13" d="M701.2,171.1l-122.6,70.6c-4.8,2.8-12.2,3.1-16.5,0.7L440,171.9c-1.4-0.7-2.4-2-2.8-3.5     c-0.3,1.7,0.6,3.4,2.8,4.7l122.1,70.5c4.2,2.4,11.6,2.1,16.5-0.7l122.6-70.6c2.9-1.7,4.2-3.9,3.9-6     C705,168.1,703.6,169.7,701.2,171.1z"></path>				<path class="st15" d="M574.4,105.9c-1.2-0.5-2.6-0.5-3.7,0.2l-116.6,67.2l-6-3.4c-1-0.6-0.8-1.5,0.3-2.1l122.3-70.4     c1.1-0.6,2.5-0.7,3.7-0.2l120,69.3c0.9,0.6,0.8,1.5-0.3,2.1l-5.7,3.2L574.4,105.9z"></path>				<path class="st20" d="M694.1,168.4c1.1-0.6,1.2-1.6,0.3-2.1L574.4,97c-1.2-0.5-2.6-0.5-3.7,0.2l-122.3,70.5     c-1.1,0.6-1.2,1.6-0.3,2.1l120,69.3c1.2,0.5,2.6,0.5,3.7-0.1L694.1,168.4z"></path>									<linearGradient id="SVGID_14_" gradientUnits="userSpaceOnUse" x1="1710.125" y1="-1993.3662" x2="1834.8545" y2="-1993.3662" gradientTransform="matrix(0.5 0.87 0.87 -0.5 1272.08 -2136.0098)">					<stop offset="0" style="stop-color:#BCBEFF"></stop>					<stop offset="0.17" style="stop-color:#B6B8FC"></stop>					<stop offset="0.4" style="stop-color:#A4A8F5"></stop>					<stop offset="0.66" style="stop-color:#868DEA"></stop>					<stop offset="0.96" style="stop-color:#5E67DA"></stop>					<stop offset="1" style="stop-color:#5761D7"></stop>				</linearGradient>				<path class="st28" d="M421.2,470.6L543.8,400c2.7-1.5,4-3.5,4-5.5l0,0v-22.1l-4.2,3.7L540,374c0.4-0.5,0.7-0.8,0.6-1l-1.8-3.1     l-86.6-51.1l-27.4-16l-10.7-3l-125.9,72.3l0.4,2.9l-3.3,1.9l-5.4-2.4v22l0,0c0,1.6,0.9,3,2.8,4.2l121.9,70.4     C408.8,473.6,416.2,473.3,421.2,470.6z M470.9,415.9l-55.6,30.3l-4.7-0.2l-92.7-51.8L292.2,381l121-69.7     c1.1-0.6,2.5-0.7,3.7-0.2l117.8,68L470.9,415.9z"></path>				<path class="st10" d="M421.2,470.6L543.8,400c2.7-1.5,4-3.5,4-5.5l0,0v-22.1l-4.2,3.7L540,374c0.4-0.5,0.7-0.8,0.6-1l-1.8-3.1     l-86.6-51.1l-27.4-16l-10.7-3l-125.9,72.3l0.4,2.9l-3.3,1.9l-5.4-2.4v22l0,0c0,1.6,0.9,3,2.8,4.2l121.9,70.4     C408.8,473.6,416.2,473.3,421.2,470.6z M470.9,415.9l-55.6,30.3l-4.7-0.2l-92.7-51.8L292.2,381l121-69.7     c1.1-0.6,2.5-0.7,3.7-0.2l117.8,68L470.9,415.9z"></path>				<path class="st10" d="M412.3,472.8v-26.7l3,0.2l55.6-30.3l63.9-37l-2.1-1.2c2-1.1,13.1-4.2,15.3-5.5v22.1l0,0     c0,1.9-1.3,3.8-4,5.5l-122.6,70.6C418.3,472,415.3,472.8,412.3,472.8z"></path>									<linearGradient id="SVGID_15_" gradientUnits="userSpaceOnUse" x1="1676.9359" y1="-1987.5908" x2="1814.2666" y2="-1987.5908" gradientTransform="matrix(0.5 0.87 0.87 -0.5 1272.08 -2136.0098)">					<stop offset="0" style="stop-color:#BCBEFF"></stop>					<stop offset="0.17" style="stop-color:#B6B8FC"></stop>					<stop offset="0.4" style="stop-color:#A4A8F5"></stop>					<stop offset="0.66" style="stop-color:#868DEA"></stop>					<stop offset="0.96" style="stop-color:#5E67DA"></stop>					<stop offset="1" style="stop-color:#5761D7"></stop>				</linearGradient>				<path class="st29" d="M421.2,448.1l122.6-70.6c4.8-2.8,5.5-7.1,1.2-9.5l-122.1-70.5c-4.2-2.4-11.6-2.1-16.5,0.7l-122.6,70.6     c-4.8,2.8-5.5,7.1-1.2,9.5l122.1,70.5C408.8,451.3,416.2,451,421.2,448.1z M414.3,444c-1.1,0.6-2.5,0.7-3.7,0.2l-120-69.3     c-0.9-0.6-0.8-1.5,0.3-2.1l122.3-70.4c1.1-0.6,2.5-0.7,3.7-0.2l120,69.3c0.9,0.6,0.8,1.5-0.3,2.1L414.3,444z"></path>				<path class="st14" d="M421.2,448.1l122.6-70.6c4.8-2.8,5.5-7.1,1.2-9.5l-122.1-70.5c-4.2-2.4-11.6-2.1-16.5,0.7l-122.6,70.6     c-4.8,2.8-5.5,7.1-1.2,9.5l122.1,70.5C408.8,451.3,416.2,451,421.2,448.1z M414.3,444c-1.1,0.6-2.5,0.7-3.7,0.2l-120-69.3     c-0.9-0.6-0.8-1.5,0.3-2.1l122.3-70.4c1.1-0.6,2.5-0.7,3.7-0.2l120,69.3c0.9,0.6,0.8,1.5-0.3,2.1L414.3,444z"></path>				<path class="st13" d="M536.9,370.1l-120-69.2c-1.2-0.5-2.6-0.5-3.7,0.2l-122.3,70.4c-0.9,0.5-1.1,1.2-0.7,1.8     c0.2-0.2,0.4-0.4,0.7-0.6l122.3-70.4c1.1-0.6,2.5-0.7,3.7-0.2l120,69.3c0.2,0.1,0.3,0.2,0.4,0.4c0.4-0.4,0.3-1.1-0.1-1.4     C537.1,370.3,537,370.3,536.9,370.1z"></path>				<path class="st13" d="M543.8,376.3l-122.6,70.6c-4.8,2.8-12.2,3-16.5,0.7l-122.1-70.5c-1.4-0.7-2.4-2-2.8-3.5     c-0.3,1.8,0.6,3.5,2.8,4.7l122.1,70.4c4.2,2.4,11.6,2.1,16.5-0.7l122.6-70.5c2.9-1.7,4.3-3.9,3.9-6     C547.6,373.2,546.1,374.9,543.8,376.3z"></path>				<path class="st15" d="M416.9,311c-1.2-0.5-2.6-0.5-3.7,0.2l-116.7,67.2l-6-3.4c-0.9-0.6-0.8-1.5,0.3-2.1l122.3-70.4     c1.1-0.6,2.5-0.7,3.7-0.2l120,69.2c0.9,0.6,0.8,1.5-0.3,2.1l-5.7,3.2L416.9,311z"></path>				<path class="st30" d="M536.6,373.6c1.1-0.6,1.2-1.6,0.3-2.1l-120-69.3c-1.2-0.5-2.6-0.5-3.7,0.2l-122.3,70.5     c-1.1,0.6-1.2,1.6-0.3,2.1l120,69.2c1.2,0.5,2.6,0.5,3.7-0.2L536.6,373.6z"></path>									<linearGradient id="SVGID_16_" gradientUnits="userSpaceOnUse" x1="1676.9767" y1="-1974.371" x2="1801.7163" y2="-1974.371" gradientTransform="matrix(0.5 0.87 0.87 -0.5 1272.08 -2136.0098)">					<stop offset="0" style="stop-color:#BCBEFF"></stop>					<stop offset="0.17" style="stop-color:#B6B8FC"></stop>					<stop offset="0.4" style="stop-color:#A4A8F5"></stop>					<stop offset="0.66" style="stop-color:#868DEA"></stop>					<stop offset="0.96" style="stop-color:#5E67DA"></stop>					<stop offset="1" style="stop-color:#5761D7"></stop>				</linearGradient>				<path class="st31" d="M421.2,432.3l122.6-70.6c2.7-1.5,4-3.5,4-5.5l0,0v-22.1l-4.2,3.7l-3.6-2.1c0.4-0.5,0.7-0.8,0.6-1l-1.8-3.1     l-86.6-51l-27.5-16.1l-10.7-3.1l-125.9,72.3l0.4,2.9l-3.3,1.9l-5.4-2.4v22l0,0c0,1.6,0.9,3,2.8,4.2l122,70.6     C408.8,435.4,416.2,435.1,421.2,432.3z M470.9,377.7L415.3,408l-4.7-0.2l-92.7-51.9l-25.7-13.2l121-69.7     c1.1-0.6,2.5-0.7,3.7-0.2l117.8,68L470.9,377.7z"></path>				<path class="st26" d="M421.2,432.3l122.6-70.6c2.7-1.5,4-3.5,4-5.5l0,0v-22.1l-4.2,3.7l-3.6-2.1c0.4-0.5,0.7-0.8,0.6-1l-1.8-3.1     l-86.6-51l-27.5-16.1l-10.7-3.1l-125.9,72.3l0.4,2.9l-3.3,1.9l-5.4-2.4v22l0,0c0,1.6,0.9,3,2.8,4.2l122,70.6     C408.8,435.4,416.2,435.1,421.2,432.3z M470.9,377.7L415.3,408l-4.7-0.2l-92.7-51.9l-25.7-13.2l121-69.7     c1.1-0.6,2.5-0.7,3.7-0.2l117.8,68L470.9,377.7z"></path>				<path class="st10" d="M412.3,434.6v-26.7l3,0.2l55.6-30.3l63.9-37l-2.1-1.2c2-1.1,13.1-4.2,15.3-5.5v22.1l0,0     c0,1.9-1.3,3.8-4,5.5l-122.5,70.6C418.4,433.8,415.4,434.5,412.3,434.6z"></path>									<linearGradient id="SVGID_17_" gradientUnits="userSpaceOnUse" x1="1643.7875" y1="-1968.577" x2="1781.1182" y2="-1968.577" gradientTransform="matrix(0.5 0.87 0.87 -0.5 1272.08 -2136.0098)">					<stop offset="0" style="stop-color:#BCBEFF"></stop>					<stop offset="0.17" style="stop-color:#B6B8FC"></stop>					<stop offset="0.4" style="stop-color:#A4A8F5"></stop>					<stop offset="0.66" style="stop-color:#868DEA"></stop>					<stop offset="0.96" style="stop-color:#5E67DA"></stop>					<stop offset="1" style="stop-color:#5761D7"></stop>				</linearGradient>				<path class="st32" d="M421.2,409.9l122.6-70.6c4.8-2.8,5.5-7.1,1.2-9.5l-122.1-70.5c-4.2-2.4-11.6-2.1-16.5,0.7l-122.6,70.6     c-4.8,2.8-5.5,7.1-1.2,9.5l122.1,70.5C408.8,413,416.2,412.7,421.2,409.9z M414.3,405.7c-1.1,0.6-2.5,0.7-3.7,0.2l-120-69.3     c-0.9-0.6-0.8-1.5,0.3-2.1l122.3-70.4c1.1-0.6,2.5-0.7,3.7-0.2l120,69.3c0.9,0.5,0.8,1.5-0.3,2.1L414.3,405.7z"></path>				<path class="st14" d="M421.2,409.9l122.6-70.6c4.8-2.8,5.5-7.1,1.2-9.5l-122.1-70.5c-4.2-2.4-11.6-2.1-16.5,0.7l-122.6,70.6     c-4.8,2.8-5.5,7.1-1.2,9.5l122.1,70.5C408.8,413,416.2,412.7,421.2,409.9z M414.3,405.7c-1.1,0.6-2.5,0.7-3.7,0.2l-120-69.3     c-0.9-0.6-0.8-1.5,0.3-2.1l122.3-70.4c1.1-0.6,2.5-0.7,3.7-0.2l120,69.3c0.9,0.5,0.8,1.5-0.3,2.1L414.3,405.7z"></path>				<path class="st13" d="M536.9,332l-120-69.3c-1.2-0.5-2.6-0.5-3.7,0.2l-122.3,70.5c-0.9,0.5-1.1,1.2-0.7,1.8     c0.2-0.3,0.4-0.5,0.7-0.6l122.3-70.4c1.1-0.6,2.5-0.7,3.7-0.2l120,69.3c0.2,0.1,0.3,0.2,0.4,0.4c0.4-0.4,0.3-1.1-0.1-1.4     C537.1,332.1,537,332,536.9,332z"></path>				<path class="st13" d="M543.8,338l-122.6,70.6c-4.8,2.8-12.2,3-16.5,0.7l-122.1-70.5c-1.4-0.7-2.4-2-2.8-3.5     c-0.3,1.7,0.6,3.4,2.8,4.7l122.1,70.5c4.2,2.4,11.6,2.1,16.5-0.7l122.6-70.6c2.9-1.7,4.3-3.9,3.9-6     C547.6,335,546.1,336.6,543.8,338z"></path>				<path class="st15" d="M416.9,272.8c-1.2-0.5-2.6-0.5-3.7,0.2l-116.7,67.2l-6-3.5c-0.9-0.6-0.8-1.5,0.3-2.1l122.3-70.4     c1.1-0.6,2.5-0.7,3.7-0.2l120,69.3c0.9,0.5,0.8,1.5-0.3,2.1l-5.7,3.2L416.9,272.8z"></path>				<path class="st30" d="M536.6,335.3c1.1-0.6,1.2-1.6,0.3-2.1l-120-69.3c-1.2-0.5-2.6-0.5-3.7,0.2l-122.3,70.4     c-1.1,0.6-1.2,1.6-0.3,2.1l120,69.3c1.2,0.5,2.6,0.5,3.7-0.2L536.6,335.3z"></path>									<linearGradient id="SVGID_18_" gradientUnits="userSpaceOnUse" x1="1643.8281" y1="-1955.3571" x2="1768.5677" y2="-1955.3571" gradientTransform="matrix(0.5 0.87 0.87 -0.5 1272.08 -2136.0098)">					<stop offset="0" style="stop-color:#BCBEFF"></stop>					<stop offset="0.17" style="stop-color:#B6B8FC"></stop>					<stop offset="0.4" style="stop-color:#A4A8F5"></stop>					<stop offset="0.66" style="stop-color:#868DEA"></stop>					<stop offset="0.96" style="stop-color:#5E67DA"></stop>					<stop offset="1" style="stop-color:#5761D7"></stop>				</linearGradient>				<path class="st33" d="M421.2,394l122.6-70.6c2.7-1.5,4-3.5,4-5.5l0,0v-22.1l-4.2,3.7l-3.6-2.1c0.4-0.5,0.7-0.9,0.6-1l-1.8-3.1     l-86.6-51.1l-27.5-16.1l-10.7-3l-125.9,72.3l0.4,2.9l-3.3,1.9l-5.4-2.4v22l0,0c0,1.6,0.9,3,2.8,4.2l122,70.6     C408.8,397.1,416.2,396.8,421.2,394z M470.9,339.4l-55.6,30.3l-4.7-0.2l-92.7-51.9l-25.7-13.2l121-69.7c1.1-0.6,2.5-0.7,3.7-0.2     l117.8,68L470.9,339.4z"></path>				<path class="st26" d="M421.2,394l122.6-70.6c2.7-1.5,4-3.5,4-5.5l0,0v-22.1l-4.2,3.7l-3.6-2.1c0.4-0.5,0.7-0.9,0.6-1l-1.8-3.1     l-86.6-51.1l-27.5-16.1l-10.7-3l-125.9,72.3l0.4,2.9l-3.3,1.9l-5.4-2.4v22l0,0c0,1.6,0.9,3,2.8,4.2l122,70.6     C408.8,397.1,416.2,396.8,421.2,394z M470.9,339.4l-55.6,30.3l-4.7-0.2l-92.7-51.9l-25.7-13.2l121-69.7c1.1-0.6,2.5-0.7,3.7-0.2     l117.8,68L470.9,339.4z"></path>				<path class="st10" d="M412.3,396.3v-26.7l3,0.2l55.6-30.3l63.9-37l-2.1-1.2c2-1.1,13.1-4.2,15.3-5.5V318l0,0     c0,1.9-1.3,3.8-4,5.5l-122.6,70.6C418.3,395.5,415.3,396.3,412.3,396.3z"></path>									<linearGradient id="SVGID_19_" gradientUnits="userSpaceOnUse" x1="1610.6493" y1="-1949.632" x2="1747.9799" y2="-1949.632" gradientTransform="matrix(0.5 0.87 0.87 -0.5 1272.08 -2136.0098)">					<stop offset="0" style="stop-color:#BCBEFF"></stop>					<stop offset="0.17" style="stop-color:#B6B8FC"></stop>					<stop offset="0.4" style="stop-color:#A4A8F5"></stop>					<stop offset="0.66" style="stop-color:#868DEA"></stop>					<stop offset="0.96" style="stop-color:#5E67DA"></stop>					<stop offset="1" style="stop-color:#5761D7"></stop>				</linearGradient>				<path class="st34" d="M421.2,371.7L543.8,301c4.8-2.8,5.5-7.1,1.2-9.5l-122.2-70.6c-4.2-2.4-11.6-2.1-16.5,0.7l-122.6,70.6     c-4.8,2.8-5.5,7.1-1.2,9.5l122.2,70.5C408.8,374.7,416.2,374.4,421.2,371.7z M414.3,367.5c-1.1,0.6-2.5,0.7-3.7,0.2l-120-69.3     c-0.9-0.6-0.8-1.5,0.3-2.1l122.3-70.4c1.1-0.6,2.5-0.7,3.7-0.2l120,69.3c0.9,0.6,0.8,1.5-0.3,2.1L414.3,367.5z"></path>				<path class="st14" d="M421.2,371.7L543.8,301c4.8-2.8,5.5-7.1,1.2-9.5l-122.2-70.6c-4.2-2.4-11.6-2.1-16.5,0.7l-122.6,70.6     c-4.8,2.8-5.5,7.1-1.2,9.5l122.2,70.5C408.8,374.7,416.2,374.4,421.2,371.7z M414.3,367.5c-1.1,0.6-2.5,0.7-3.7,0.2l-120-69.3     c-0.9-0.6-0.8-1.5,0.3-2.1l122.3-70.4c1.1-0.6,2.5-0.7,3.7-0.2l120,69.3c0.9,0.6,0.8,1.5-0.3,2.1L414.3,367.5z"></path>				<path class="st13" d="M536.9,293.7l-120-69.3c-1.2-0.5-2.6-0.5-3.7,0.2l-122.3,70.5c-0.9,0.5-1.1,1.2-0.7,1.8     c0.2-0.2,0.4-0.5,0.7-0.6l122.3-70.4c1.1-0.6,2.5-0.7,3.7-0.2l120,69.3c0.2,0.1,0.3,0.2,0.4,0.4c0.3-0.4,0.3-1.1-0.2-1.4     C537,293.8,537,293.8,536.9,293.7z"></path>				<path class="st13" d="M543.8,299.8l-122.6,70.6c-4.8,2.8-12.2,3-16.5,0.7l-122.1-70.5c-1.4-0.7-2.4-2-2.8-3.5     c-0.3,1.7,0.6,3.5,2.8,4.7l122.1,70.4c4.2,2.4,11.6,2.1,16.5-0.7l122.6-70.6c2.9-1.7,4.3-3.9,3.9-6     C547.6,296.7,546.1,298.4,543.8,299.8z"></path>				<path class="st15" d="M416.9,234.6c-1.2-0.5-2.6-0.5-3.7,0.2L296.5,302l-6-3.4c-0.9-0.6-0.8-1.5,0.3-2.1L413.2,226     c1.1-0.6,2.5-0.7,3.7-0.2l120,69.3c0.9,0.6,0.8,1.5-0.3,2.1l-5.7,3.2L416.9,234.6z"></path>				<path class="st24" d="M536.6,297.1c1.1-0.6,1.2-1.6,0.3-2.1l-120-69.3c-1.2-0.5-2.6-0.5-3.7,0.2l-122.3,70.5     c-1.1,0.6-1.2,1.6-0.3,2.1l120,69.3c1.2,0.5,2.6,0.5,3.7-0.2L536.6,297.1z"></path>									<linearGradient id="SVGID_20_" gradientUnits="userSpaceOnUse" x1="1610.6899" y1="-1936.3934" x2="1735.4296" y2="-1936.3934" gradientTransform="matrix(0.5 0.87 0.87 -0.5 1272.08 -2136.0098)">					<stop offset="0" style="stop-color:#BCBEFF"></stop>					<stop offset="0.17" style="stop-color:#B6B8FC"></stop>					<stop offset="0.4" style="stop-color:#A4A8F5"></stop>					<stop offset="0.66" style="stop-color:#868DEA"></stop>					<stop offset="0.96" style="stop-color:#5E67DA"></stop>					<stop offset="1" style="stop-color:#5761D7"></stop>				</linearGradient>				<path class="st35" d="M421.2,355.8l122.6-70.6c2.7-1.5,4-3.5,4-5.5l0,0v-22.1l-4.2,3.7l-3.6-2.1c0.4-0.5,0.7-0.8,0.6-1l-1.8-3     l-86.6-51.1L424.7,188l-10.7-3.1l-125.9,72.3l0.4,2.9l-3.3,1.9l-5.4-2.4v22l0,0c0,1.6,0.9,3,2.8,4.2l122,70.5     C408.8,358.8,416.2,358.6,421.2,355.8z M470.9,301.2l-55.6,30.3l-4.7-0.2l-92.7-51.9l-25.7-13.2l121-69.7     c1.1-0.6,2.5-0.7,3.7-0.2l117.8,68L470.9,301.2z"></path>				<path class="st26" d="M421.2,355.8l122.6-70.6c2.7-1.5,4-3.5,4-5.5l0,0v-22.1l-4.2,3.7l-3.6-2.1c0.4-0.5,0.7-0.8,0.6-1l-1.8-3     l-86.6-51.1L424.7,188l-10.7-3.1l-125.9,72.3l0.4,2.9l-3.3,1.9l-5.4-2.4v22l0,0c0,1.6,0.9,3,2.8,4.2l122,70.5     C408.8,358.8,416.2,358.6,421.2,355.8z M470.9,301.2l-55.6,30.3l-4.7-0.2l-92.7-51.9l-25.7-13.2l121-69.7     c1.1-0.6,2.5-0.7,3.7-0.2l117.8,68L470.9,301.2z"></path>				<path class="st10" d="M412.3,358.1v-26.7l3,0.2l55.6-30.3l63.9-36.9l-2.1-1.2c2-1.1,13.1-4.2,15.3-5.5v22.1l0,0     c0,1.9-1.3,3.8-4,5.5L421.2,356C418.3,357.3,415.3,358,412.3,358.1z"></path>									<linearGradient id="SVGID_21_" gradientUnits="userSpaceOnUse" x1="1577.5009" y1="-1930.6246" x2="1714.8314" y2="-1930.6246" gradientTransform="matrix(0.5 0.87 0.87 -0.5 1272.08 -2136.0098)">					<stop offset="0" style="stop-color:#BCBEFF"></stop>					<stop offset="0.17" style="stop-color:#B6B8FC"></stop>					<stop offset="0.4" style="stop-color:#A4A8F5"></stop>					<stop offset="0.66" style="stop-color:#868DEA"></stop>					<stop offset="0.96" style="stop-color:#5E67DA"></stop>					<stop offset="1" style="stop-color:#5761D7"></stop>				</linearGradient>				<path class="st36" d="M421.2,333.4l122.6-70.6c4.8-2.8,5.5-7.1,1.2-9.5l-122.1-70.4c-4.2-2.4-11.6-2.1-16.5,0.7l-122.6,70.6     c-4.8,2.8-5.5,7.1-1.2,9.5l122,70.4C408.8,336.5,416.2,336.2,421.2,333.4z M414.3,329.2c-1.1,0.6-2.5,0.7-3.7,0.2l-120-69.3     c-0.9-0.6-0.8-1.5,0.3-2.1l122.3-70.4c1.1-0.6,2.5-0.7,3.7-0.2l120,69.3c0.9,0.6,0.8,1.5-0.3,2.1L414.3,329.2z"></path>				<path class="st14" d="M421.2,333.4l122.6-70.6c4.8-2.8,5.5-7.1,1.2-9.5l-122.1-70.4c-4.2-2.4-11.6-2.1-16.5,0.7l-122.6,70.6     c-4.8,2.8-5.5,7.1-1.2,9.5l122,70.4C408.8,336.5,416.2,336.2,421.2,333.4z M414.3,329.2c-1.1,0.6-2.5,0.7-3.7,0.2l-120-69.3     c-0.9-0.6-0.8-1.5,0.3-2.1l122.3-70.4c1.1-0.6,2.5-0.7,3.7-0.2l120,69.3c0.9,0.6,0.8,1.5-0.3,2.1L414.3,329.2z"></path>				<path class="st13" d="M536.9,255.5l-120-69.3c-1.2-0.5-2.6-0.5-3.7,0.2l-122.3,70.5c-0.9,0.5-1.1,1.2-0.7,1.8     c0.2-0.2,0.4-0.4,0.7-0.6l122.3-70.5c1.1-0.6,2.5-0.7,3.7-0.2l120,69.3c0.2,0.1,0.3,0.2,0.4,0.4c0.4-0.4,0.3-1.1-0.1-1.4     C537.1,255.5,537,255.5,536.9,255.5z"></path>				<path class="st13" d="M543.8,261.5l-122.6,70.6c-4.8,2.8-12.2,3.1-16.5,0.7l-122.1-70.5c-1.4-0.7-2.4-2-2.8-3.5     c-0.3,1.7,0.6,3.4,2.8,4.7l122.1,70.5c4.2,2.4,11.6,2.1,16.5-0.7l122.6-70.6c2.9-1.7,4.3-3.9,3.9-6     C547.6,258.4,546.1,260.2,543.8,261.5z"></path>				<path class="st15" d="M416.9,196.3c-1.2-0.5-2.6-0.5-3.7,0.2l-116.7,67.2l-6-3.4c-0.9-0.6-0.8-1.5,0.3-2.1l122.3-70.5     c1.1-0.6,2.5-0.7,3.7-0.2l120,69.3c0.9,0.6,0.8,1.5-0.3,2.1L531,262L416.9,196.3z"></path>				<path class="st20" d="M536.6,258.8c1.1-0.6,1.2-1.6,0.3-2.1l-120-69.3c-1.2-0.5-2.6-0.5-3.7,0.2l-122.3,70.5     c-1.1,0.6-1.2,1.6-0.3,2.1l120,69.3c1.2,0.5,2.6,0.5,3.7-0.2L536.6,258.8z"></path>									<linearGradient id="SVGID_22_" gradientUnits="userSpaceOnUse" x1="1709.8806" y1="-2174.3501" x2="1834.6204" y2="-2174.3501" gradientTransform="matrix(0.5 0.87 0.87 -0.5 1272.08 -2136.0098)">					<stop offset="0" style="stop-color:#BCBEFF"></stop>					<stop offset="0.17" style="stop-color:#B6B8FC"></stop>					<stop offset="0.4" style="stop-color:#A4A8F5"></stop>					<stop offset="0.66" style="stop-color:#868DEA"></stop>					<stop offset="0.96" style="stop-color:#5E67DA"></stop>					<stop offset="1" style="stop-color:#5761D7"></stop>				</linearGradient>				<path class="st37" d="M263.7,560.9l122.6-70.6c2.7-1.5,4-3.5,4-5.5l0,0v-22.1l-4.2,3.7l-3.6-2c0.4-0.5,0.7-0.8,0.6-1l-1.8-3.1     l-86.5-51.1l-27.5-16l-10.7-3.1l-126,72.3l0.4,2.9l-3.3,1.9l-5.4-2.4v22l0,0c0,1.6,0.9,3,2.8,4.2l122.1,70.5     C251.4,564,258.8,563.8,263.7,560.9z M313.5,506.3l-55.6,30.3l-4.7-0.2l-92.7-51.8l-25.7-13.2l121-69.7c1.1-0.6,2.5-0.7,3.7-0.2     l117.8,68L313.5,506.3z"></path>				<path class="st38" d="M263.7,560.9l122.6-70.6c2.7-1.5,4-3.5,4-5.5l0,0v-22.1l-4.2,3.7l-3.6-2c0.4-0.5,0.7-0.8,0.6-1l-1.8-3.1     l-86.5-51.1l-27.5-16l-10.7-3.1l-126,72.3l0.4,2.9l-3.3,1.9l-5.4-2.4v22l0,0c0,1.6,0.9,3,2.8,4.2l122.1,70.5     C251.4,564,258.8,563.8,263.7,560.9z M313.5,506.3l-55.6,30.3l-4.7-0.2l-92.7-51.8l-25.7-13.2l121-69.7c1.1-0.6,2.5-0.7,3.7-0.2     l117.8,68L313.5,506.3z"></path>				<path class="st5" d="M254.8,563.2v-26.7l3,0.2l55.6-30.3l63.9-37l-2.1-1.2c2-1.1,13.1-4.2,15.3-5.5v22.1l0,0     c0,1.9-1.3,3.8-4,5.5L263.7,561C260.9,562.4,257.9,563.2,254.8,563.2z"></path>									<linearGradient id="SVGID_23_" gradientUnits="userSpaceOnUse" x1="1676.7015" y1="-2168.5813" x2="1814.0323" y2="-2168.5813" gradientTransform="matrix(0.5 0.87 0.87 -0.5 1272.08 -2136.0098)">					<stop offset="0" style="stop-color:#BCBEFF"></stop>					<stop offset="0.17" style="stop-color:#B6B8FC"></stop>					<stop offset="0.4" style="stop-color:#A4A8F5"></stop>					<stop offset="0.66" style="stop-color:#868DEA"></stop>					<stop offset="0.96" style="stop-color:#5E67DA"></stop>					<stop offset="1" style="stop-color:#5761D7"></stop>				</linearGradient>				<path class="st39" d="M263.7,538.6l122.6-70.6c4.8-2.8,5.4-7.1,1.2-9.5l-122.1-70.5c-4.2-2.4-11.6-2.1-16.5,0.7l-122.6,70.6     c-4.8,2.8-5.4,7.1-1.2,9.5l122.1,70.4C251.4,541.7,258.8,541.4,263.7,538.6z M256.9,534.4c-1.1,0.6-2.5,0.7-3.7,0.1l-120-69.3     c-0.9-0.6-0.8-1.5,0.3-2.1l122.2-70.4c1.1-0.6,2.5-0.7,3.7-0.2l120,69.3c1,0.6,0.8,1.5-0.3,2.1L256.9,534.4z"></path>				<path class="st40" d="M263.7,538.6l122.6-70.6c4.8-2.8,5.4-7.1,1.2-9.5l-122.1-70.5c-4.2-2.4-11.6-2.1-16.5,0.7l-122.6,70.6     c-4.8,2.8-5.4,7.1-1.2,9.5l122.1,70.4C251.4,541.7,258.8,541.4,263.7,538.6z M256.9,534.4c-1.1,0.6-2.5,0.7-3.7,0.1l-120-69.3     c-0.9-0.6-0.8-1.5,0.3-2.1l122.2-70.4c1.1-0.6,2.5-0.7,3.7-0.2l120,69.3c1,0.6,0.8,1.5-0.3,2.1L256.9,534.4z"></path>				<path class="st38" d="M379.4,460.6l-120-69.3c-1.2-0.5-2.6-0.5-3.7,0.1l-122.3,70.4c-0.9,0.5-1.1,1.2-0.7,1.8     c0.2-0.2,0.4-0.4,0.7-0.6l122.3-70.3c1.1-0.6,2.5-0.7,3.7-0.2l120,69.3c0.2,0.1,0.3,0.2,0.4,0.4c0.3-0.4,0.3-1.1-0.2-1.4     C379.6,460.7,379.5,460.7,379.4,460.6z"></path>				<path class="st38" d="M386.3,466.7l-122.6,70.6c-4.8,2.8-12.2,3.1-16.5,0.7l-122.1-70.6c-1.4-0.7-2.4-2-2.8-3.5     c-0.3,1.7,0.6,3.4,2.8,4.7l122.1,70.5c4.2,2.4,11.6,2.1,16.5-0.7l122.6-70.6c2.9-1.7,4.2-3.9,3.9-6     C390.1,463.6,388.7,465.3,386.3,466.7z"></path>				<path class="st15" d="M259.5,401.5c-1.2-0.5-2.6-0.5-3.7,0.2l-116.6,67.2l-6-3.4c-0.9-0.6-0.8-1.5,0.3-2.1l122.1-70.6     c1.1-0.6,2.5-0.7,3.7-0.2l120,69.4c1,0.6,0.8,1.5-0.3,2.1l-5.7,3.2L259.5,401.5z"></path>				<path class="st5" d="M379.1,464c1.1-0.6,1.2-1.6,0.3-2.1l-120-69.3c-1.2-0.5-2.6-0.5-3.7,0.2l-122.3,70.5     c-1.1,0.6-1.2,1.6-0.3,2.1l120.1,69.2c1.2,0.5,2.6,0.5,3.7-0.1L379.1,464z"></path>									<linearGradient id="SVGID_24_" gradientUnits="userSpaceOnUse" x1="1676.7424" y1="-2155.3428" x2="1801.4821" y2="-2155.3428" gradientTransform="matrix(0.5 0.87 0.87 -0.5 1272.08 -2136.0098)">					<stop offset="0" style="stop-color:#BCBEFF"></stop>					<stop offset="0.17" style="stop-color:#B6B8FC"></stop>					<stop offset="0.4" style="stop-color:#A4A8F5"></stop>					<stop offset="0.66" style="stop-color:#868DEA"></stop>					<stop offset="0.96" style="stop-color:#5E67DA"></stop>					<stop offset="1" style="stop-color:#5761D7"></stop>				</linearGradient>				<path class="st41" d="M263.7,522.7l122.6-70.6c2.7-1.5,4-3.5,4-5.5l0,0v-22.1l-4.2,3.8l-3.6-2.1c0.4-0.5,0.7-0.8,0.6-1l-1.8-3.1     L294.8,371l-27.5-16.1l-10.7-3l-125.9,72.3l0.4,2.9l-3.3,1.9l-5.4-2.4v22l0,0c0,1.6,0.9,3,2.8,4.2l122.1,70.5     C251.4,525.8,258.8,525.5,263.7,522.7z M313.5,468.1l-55.6,30.3l-4.7-0.2l-92.7-51.9l-25.7-13.2l121-69.7     c1.1-0.6,2.5-0.7,3.7-0.2l117.8,68L313.5,468.1z"></path>				<path class="st26" d="M263.7,522.7l122.6-70.6c2.7-1.5,4-3.5,4-5.5l0,0v-22.1l-4.2,3.8l-3.6-2.1c0.4-0.5,0.7-0.8,0.6-1l-1.8-3.1     L294.8,371l-27.5-16.1l-10.7-3l-125.9,72.3l0.4,2.9l-3.3,1.9l-5.4-2.4v22l0,0c0,1.6,0.9,3,2.8,4.2l122.1,70.5     C251.4,525.8,258.8,525.5,263.7,522.7z M313.5,468.1l-55.6,30.3l-4.7-0.2l-92.7-51.9l-25.7-13.2l121-69.7     c1.1-0.6,2.5-0.7,3.7-0.2l117.8,68L313.5,468.1z"></path>				<path class="st10" d="M254.8,525v-26.7l3,0.2l55.6-30.3l63.9-37l-2.1-1.2c2-1.1,13.1-4.2,15.3-5.5v22.1l0,0c0,1.9-1.3,3.8-4,5.5     l-122.6,70.6C260.9,524.2,257.9,524.9,254.8,525z"></path>									<linearGradient id="SVGID_25_" gradientUnits="userSpaceOnUse" x1="1643.5531" y1="-2149.5676" x2="1780.8839" y2="-2149.5676" gradientTransform="matrix(0.5 0.87 0.87 -0.5 1272.08 -2136.0098)">					<stop offset="0" style="stop-color:#BCBEFF"></stop>					<stop offset="0.17" style="stop-color:#B6B8FC"></stop>					<stop offset="0.4" style="stop-color:#A4A8F5"></stop>					<stop offset="0.66" style="stop-color:#868DEA"></stop>					<stop offset="0.96" style="stop-color:#5E67DA"></stop>					<stop offset="1" style="stop-color:#5761D7"></stop>				</linearGradient>				<path class="st42" d="M263.7,500.3l122.6-70.6c4.8-2.8,5.4-7.1,1.2-9.5l-122.1-70.5c-4.2-2.4-11.6-2.1-16.5,0.7L126.3,421     c-4.8,2.8-5.4,7.1-1.2,9.5L247.2,501C251.4,503.4,258.8,503.1,263.7,500.3z M256.9,496.1c-1.1,0.6-2.5,0.7-3.7,0.2l-120-69.3     c-0.9-0.5-0.8-1.5,0.3-2.1l122.3-70.4c1.1-0.6,2.5-0.7,3.7-0.2l119.9,69.3c1,0.5,0.8,1.5-0.3,2.1L256.9,496.1z"></path>				<path class="st14" d="M263.7,500.3l122.6-70.6c4.8-2.8,5.4-7.1,1.2-9.5l-122.1-70.5c-4.2-2.4-11.6-2.1-16.5,0.7L126.3,421     c-4.8,2.8-5.4,7.1-1.2,9.5L247.2,501C251.4,503.4,258.8,503.1,263.7,500.3z M256.9,496.1c-1.1,0.6-2.5,0.7-3.7,0.2l-120-69.3     c-0.9-0.5-0.8-1.5,0.3-2.1l122.3-70.4c1.1-0.6,2.5-0.7,3.7-0.2l119.9,69.3c1,0.5,0.8,1.5-0.3,2.1L256.9,496.1z"></path>				<path class="st13" d="M379.4,422.4l-120-69.3c-1.2-0.5-2.6-0.5-3.7,0.2l-122.3,70.4c-0.9,0.5-1.1,1.2-0.7,1.8     c0.2-0.2,0.4-0.5,0.7-0.6l122.3-70.4c1.1-0.6,2.5-0.7,3.7-0.2l120,69.3c0.2,0.1,0.3,0.2,0.4,0.4c0.3-0.4,0.3-1.1-0.2-1.4     C379.6,422.5,379.5,422.4,379.4,422.4z"></path>				<path class="st13" d="M386.3,428.4l-122.6,70.6c-4.8,2.8-12.2,3-16.5,0.7l-122.1-70.5c-1.4-0.7-2.4-2-2.8-3.5     c-0.3,1.7,0.6,3.5,2.8,4.7L247.2,501c4.2,2.4,11.6,2.1,16.5-0.7l122.6-70.6c2.9-1.7,4.2-3.9,3.9-6     C390.1,425.4,388.7,427.1,386.3,428.4z"></path>				<path class="st15" d="M259.5,363.2c-1.2-0.5-2.6-0.5-3.7,0.2l-116.6,67.2l-6-3.4c-0.9-0.5-0.8-1.5,0.3-2.1l122.3-70.4     c1.1-0.6,2.5-0.7,3.7-0.2l119.8,69.2c1,0.5,0.8,1.5-0.3,2.1l-5.7,3.2L259.5,363.2z"></path>				<path class="st30" d="M379.1,425.7c1.1-0.6,1.2-1.6,0.3-2.1l-119.9-69.3c-1.2-0.5-2.6-0.5-3.7,0.2L133.4,425     c-1.1,0.6-1.2,1.6-0.3,2.1l120,69.2c1.2,0.5,2.6,0.5,3.7-0.2L379.1,425.7z"></path>									<linearGradient id="SVGID_26_" gradientUnits="userSpaceOnUse" x1="1643.594" y1="-2136.354" x2="1768.3334" y2="-2136.354" gradientTransform="matrix(0.5 0.87 0.87 -0.5 1272.08 -2136.0098)">					<stop offset="0" style="stop-color:#BCBEFF"></stop>					<stop offset="0.17" style="stop-color:#B6B8FC"></stop>					<stop offset="0.4" style="stop-color:#A4A8F5"></stop>					<stop offset="0.66" style="stop-color:#868DEA"></stop>					<stop offset="0.96" style="stop-color:#5E67DA"></stop>					<stop offset="1" style="stop-color:#5761D7"></stop>				</linearGradient>				<path class="st43" d="M263.7,484.4l122.6-70.6c2.7-1.5,4-3.5,4-5.5l0,0v-22.1l-4.2,3.7l-3.6-2c0.4-0.5,0.7-0.8,0.6-1l-1.8-3.1     l-86.5-51.1l-27.5-16l-10.7-3L130.7,386l0.4,2.9l-3.3,1.9l-5.4-2.4v22l0,0c0,1.6,0.9,3,2.8,4.2l122.1,70.5     C251.4,487.5,258.8,487.2,263.7,484.4z M313.5,429.9l-55.6,30.3l-4.7-0.2L160.4,408l-25.7-13.2l121-69.7     c1.1-0.6,2.5-0.7,3.7-0.2l117.8,68L313.5,429.9z"></path>									<linearGradient id="SVGID_27_" gradientUnits="userSpaceOnUse" x1="1643.594" y1="-2136.354" x2="1768.3334" y2="-2136.354" gradientTransform="matrix(0.5 0.87 0.87 -0.5 1272.08 -2136.0098)">					<stop offset="0" style="stop-color:#706EC4"></stop>					<stop offset="2.000000e-02" style="stop-color:#6D6BC2"></stop>					<stop offset="0.25" style="stop-color:#5651AC"></stop>					<stop offset="0.49" style="stop-color:#463F9D"></stop>					<stop offset="0.73" style="stop-color:#3C3494"></stop>					<stop offset="1" style="stop-color:#393091"></stop>				</linearGradient>				<path class="st44" d="M263.7,484.4l122.6-70.6c2.7-1.5,4-3.5,4-5.5l0,0v-22.1l-4.2,3.7l-3.6-2c0.4-0.5,0.7-0.8,0.6-1l-1.8-3.1     l-86.5-51.1l-27.5-16l-10.7-3L130.7,386l0.4,2.9l-3.3,1.9l-5.4-2.4v22l0,0c0,1.6,0.9,3,2.8,4.2l122.1,70.5     C251.4,487.5,258.8,487.2,263.7,484.4z M313.5,429.9l-55.6,30.3l-4.7-0.2L160.4,408l-25.7-13.2l121-69.7     c1.1-0.6,2.5-0.7,3.7-0.2l117.8,68L313.5,429.9z"></path>				<path class="st10" d="M254.8,486.7v-26.7l3,0.2l55.6-30.3l63.9-37l-2.1-1.2c2-1.1,13.1-4.2,15.3-5.5v22.1l0,0     c0,1.9-1.3,3.8-4,5.5l-122.6,70.6C260.9,485.9,257.9,486.7,254.8,486.7z"></path>									<linearGradient id="SVGID_28_" gradientUnits="userSpaceOnUse" x1="1610.4048" y1="-2130.604" x2="1747.7355" y2="-2130.604" gradientTransform="matrix(0.5 0.87 0.87 -0.5 1272.08 -2136.0098)">					<stop offset="0" style="stop-color:#BCBEFF"></stop>					<stop offset="0.17" style="stop-color:#B6B8FC"></stop>					<stop offset="0.4" style="stop-color:#A4A8F5"></stop>					<stop offset="0.66" style="stop-color:#868DEA"></stop>					<stop offset="0.96" style="stop-color:#5E67DA"></stop>					<stop offset="1" style="stop-color:#5761D7"></stop>				</linearGradient>				<path class="st45" d="M263.7,462.1l122.6-70.6c4.8-2.8,5.4-7.1,1.2-9.5l-122.1-70.5c-4.2-2.4-11.6-2.1-16.5,0.7l-122.6,70.6     c-4.8,2.8-5.4,7.1-1.2,9.5l122.1,70.5C251.4,465.1,258.8,464.8,263.7,462.1z M256.9,457.9c-1.1,0.6-2.5,0.7-3.7,0.1l-120-69.3     c-0.9-0.6-0.8-1.5,0.3-2.1l122.3-70.4c1.1-0.6,2.5-0.7,3.7-0.1l119.9,69.3c1,0.6,0.8,1.5-0.3,2.1L256.9,457.9z"></path>				<path class="st14" d="M263.7,462.1l122.6-70.6c4.8-2.8,5.4-7.1,1.2-9.5l-122.1-70.5c-4.2-2.4-11.6-2.1-16.5,0.7l-122.6,70.6     c-4.8,2.8-5.4,7.1-1.2,9.5l122.1,70.5C251.4,465.1,258.8,464.8,263.7,462.1z M256.9,457.9c-1.1,0.6-2.5,0.7-3.7,0.1l-120-69.3     c-0.9-0.6-0.8-1.5,0.3-2.1l122.3-70.4c1.1-0.6,2.5-0.7,3.7-0.1l119.9,69.3c1,0.6,0.8,1.5-0.3,2.1L256.9,457.9z"></path>				<path class="st13" d="M379.4,384.1l-120-69.3c-1.2-0.5-2.6-0.5-3.7,0.2l-122.3,70.5c-0.9,0.5-1.1,1.2-0.7,1.8     c0.2-0.2,0.4-0.4,0.7-0.6l122.3-70.4c1.1-0.6,2.5-0.7,3.7-0.2l120,69.3c0.2,0.1,0.3,0.2,0.4,0.4c0.4-0.4,0.3-1.1-0.1-1.4     C379.6,384.2,379.5,384.2,379.4,384.1z"></path>				<path class="st13" d="M386.3,390.3L263.7,461c-4.8,2.8-12.2,3.1-16.5,0.7l-122.1-70.5c-1.4-0.7-2.4-2-2.8-3.5     c-0.3,1.7,0.6,3.4,2.8,4.7l122.1,70.5c4.2,2.4,11.6,2.1,16.5-0.7l122.6-70.6c2.9-1.7,4.2-3.9,3.9-6     C390.1,387.1,388.7,388.8,386.3,390.3z"></path>				<path class="st15" d="M259.5,325c-1.2-0.5-2.6-0.5-3.7,0.2l-116.6,67.2l-6-3.4c-0.9-0.6-0.8-1.5,0.3-2.1l122.3-70.4     c1.1-0.6,2.5-0.7,3.7-0.1l119.8,69.1c1,0.6,0.8,1.5-0.3,2.1l-5.7,3.2L259.5,325z"></path>				<path class="st30" d="M379.1,387.5c1.1-0.6,1.2-1.6,0.3-2.1l-120-69.3c-1.2-0.5-2.6-0.5-3.7,0.1l-122.2,70.4     c-1.1,0.6-1.2,1.6-0.3,2.1l120,69.4c1.2,0.5,2.6,0.5,3.7-0.1L379.1,387.5z"></path>									<linearGradient id="SVGID_29_" gradientUnits="userSpaceOnUse" x1="1610.4557" y1="-2117.3403" x2="1735.1851" y2="-2117.3403" gradientTransform="matrix(0.5 0.87 0.87 -0.5 1272.08 -2136.0098)">					<stop offset="0" style="stop-color:#BCBEFF"></stop>					<stop offset="0.17" style="stop-color:#B6B8FC"></stop>					<stop offset="0.4" style="stop-color:#A4A8F5"></stop>					<stop offset="0.66" style="stop-color:#868DEA"></stop>					<stop offset="0.96" style="stop-color:#5E67DA"></stop>					<stop offset="1" style="stop-color:#5761D7"></stop>				</linearGradient>				<path class="st46" d="M263.7,446.2l122.6-70.6c2.7-1.5,4-3.5,4-5.5l0,0V348l-4.2,3.7l-3.6-2.1c0.4-0.5,0.7-0.8,0.6-1l-1.8-3.1     l-86.5-51.1l-27.5-16l-10.7-3.1l-125.9,72.3l0.4,2.9l-3.3,1.9l-5.4-2.4v22l0,0c0,1.6,0.9,3,2.8,4.2l122.1,70.5     C251.4,449.3,258.8,449.1,263.7,446.2z M313.5,391.7L257.9,422l-4.7-0.2l-92.7-51.9l-25.7-13.2l121-69.7     c1.1-0.6,2.5-0.7,3.7-0.2l117.8,68L313.5,391.7z"></path>									<linearGradient id="SVGID_30_" gradientUnits="userSpaceOnUse" x1="1610.4557" y1="-2117.3403" x2="1735.1851" y2="-2117.3403" gradientTransform="matrix(0.5 0.87 0.87 -0.5 1272.08 -2136.0098)">					<stop offset="0" style="stop-color:#706EC4"></stop>					<stop offset="2.000000e-02" style="stop-color:#6D6BC2"></stop>					<stop offset="0.25" style="stop-color:#5651AC"></stop>					<stop offset="0.49" style="stop-color:#463F9D"></stop>					<stop offset="0.73" style="stop-color:#3C3494"></stop>					<stop offset="1" style="stop-color:#393091"></stop>				</linearGradient>				<path class="st47" d="M263.7,446.2l122.6-70.6c2.7-1.5,4-3.5,4-5.5l0,0V348l-4.2,3.7l-3.6-2.1c0.4-0.5,0.7-0.8,0.6-1l-1.8-3.1     l-86.5-51.1l-27.5-16l-10.7-3.1l-125.9,72.3l0.4,2.9l-3.3,1.9l-5.4-2.4v22l0,0c0,1.6,0.9,3,2.8,4.2l122.1,70.5     C251.4,449.3,258.8,449.1,263.7,446.2z M313.5,391.7L257.9,422l-4.7-0.2l-92.7-51.9l-25.7-13.2l121-69.7     c1.1-0.6,2.5-0.7,3.7-0.2l117.8,68L313.5,391.7z"></path>				<path class="st10" d="M254.8,448.5v-26.7l3,0.2l55.6-30.3l63.9-37l-2.1-1.2c2-1.1,13.1-4.2,15.3-5.5v22.1l0,0     c0,1.9-1.3,3.8-4,5.5l-122.6,70.5C260.9,447.6,257.9,448.4,254.8,448.5z"></path>									<linearGradient id="SVGID_31_" gradientUnits="userSpaceOnUse" x1="1577.2665" y1="-2111.5901" x2="1714.5972" y2="-2111.5901" gradientTransform="matrix(0.5 0.87 0.87 -0.5 1272.08 -2136.0098)">					<stop offset="0" style="stop-color:#BCBEFF"></stop>					<stop offset="0.17" style="stop-color:#B6B8FC"></stop>					<stop offset="0.4" style="stop-color:#A4A8F5"></stop>					<stop offset="0.66" style="stop-color:#868DEA"></stop>					<stop offset="0.96" style="stop-color:#5E67DA"></stop>					<stop offset="1" style="stop-color:#5761D7"></stop>				</linearGradient>				<path class="st48" d="M263.7,423.8l122.6-70.6c4.8-2.8,5.4-7.1,1.2-9.5l-122.1-70.5c-4.2-2.4-11.6-2.1-16.5,0.7l-122.6,70.6     c-4.8,2.8-5.4,7.1-1.2,9.5l122.1,70.5C251.4,426.9,258.8,426.6,263.7,423.8z M256.9,419.7c-1.1,0.6-2.5,0.7-3.7,0.2l-120-69.3     c-0.9-0.5-0.8-1.5,0.3-2.1L255.8,278c1.1-0.6,2.5-0.7,3.7-0.2l119.9,69.3c1,0.5,0.8,1.5-0.3,2.1L256.9,419.7z"></path>				<path class="st14" d="M263.7,423.8l122.6-70.6c4.8-2.8,5.4-7.1,1.2-9.5l-122.1-70.5c-4.2-2.4-11.6-2.1-16.5,0.7l-122.6,70.6     c-4.8,2.8-5.4,7.1-1.2,9.5l122.1,70.5C251.4,426.9,258.8,426.6,263.7,423.8z M256.9,419.7c-1.1,0.6-2.5,0.7-3.7,0.2l-120-69.3     c-0.9-0.5-0.8-1.5,0.3-2.1L255.8,278c1.1-0.6,2.5-0.7,3.7-0.2l119.9,69.3c1,0.5,0.8,1.5-0.3,2.1L256.9,419.7z"></path>				<path class="st13" d="M379.4,345.9l-120-69.3c-1.2-0.5-2.6-0.5-3.7,0.2l-122.2,70.4c-0.9,0.5-1.1,1.2-0.7,1.8     c0.2-0.3,0.4-0.5,0.7-0.6L255.8,278c1.1-0.6,2.5-0.7,3.7-0.2l119.9,69.3c0.2,0.1,0.3,0.2,0.4,0.4c0.3-0.4,0.3-1.1-0.2-1.4     C379.6,345.9,379.5,345.9,379.4,345.9z"></path>				<path class="st13" d="M386.3,352l-122.6,70.6c-4.8,2.8-12.2,3.1-16.5,0.7l-122.1-70.5c-1.4-0.7-2.4-2-2.8-3.5     c-0.3,1.7,0.6,3.5,2.8,4.7l122.1,70.5c4.2,2.4,11.6,2.1,16.5-0.7l122.6-70.6c2.9-1.7,4.2-3.9,3.9-6     C390.1,348.8,388.7,350.6,386.3,352z"></path>				<path class="st15" d="M259.5,286.7c-1.2-0.5-2.6-0.5-3.7,0.2l-116.6,67.2l-6-3.4c-0.9-0.5-0.8-1.5,0.3-2.1l122.3-70.4     c1.1-0.6,2.5-0.7,3.7-0.2l119.8,69.2c1,0.5,0.8,1.5-0.3,2.1l-5.7,3.2L259.5,286.7z"></path>				<path class="st30" d="M379.1,349.2c1.1-0.6,1.2-1.6,0.3-2.1l-120-69.3c-1.2-0.5-2.6-0.5-3.7,0.2l-122.3,70.4     c-1.1,0.6-1.2,1.6-0.3,2.1l120.1,69.3c1.2,0.5,2.6,0.5,3.7-0.2L379.1,349.2z"></path>			</g>		</g>	</g>	<path class="st26" d="M519.9,287.7c-0.1,1.7-1,3.2-2.4,4.1c-1.3,0.8-2.4,0.1-2.4-1.4c0.1-1.7,1-3.2,2.4-4.1  C518.8,285.6,519.9,286.2,519.9,287.7z"></path>	<path class="st26" d="M528.3,282.9c-0.1,1.7-1,3.2-2.4,4.1c-1.3,0.8-2.4,0.2-2.4-1.4c0.1-1.7,1-3.2,2.4-4.1  C527.1,280.7,528.3,281.3,528.3,282.9z"></path>	<path class="st26" d="M536.6,278c-0.1,1.7-1,3.2-2.4,4.1c-1.3,0.8-2.4,0.1-2.4-1.4c0.1-1.7,1-3.2,2.4-4.1  C535.6,275.9,536.6,276.5,536.6,278z"></path>	<path class="st26" d="M517.4,368.8c-1.3,0.8-2.4,0.1-2.4-1.4c0.1-1.7,1-3.2,2.4-4.1c1.3-0.8,2.4-0.1,2.4,1.4  C519.8,366.3,518.9,367.8,517.4,368.8"></path>	<path class="st26" d="M528.3,359.7c-0.1,1.7-1,3.2-2.4,4.1c-1.3,0.8-2.4,0.2-2.4-1.4c0.1-1.7,1-3.2,2.4-4.1  C527.1,357.6,528.3,358.2,528.3,359.7z"></path>	<path class="st26" d="M536.6,355c-0.1,1.7-1,3.2-2.4,4.1c-1.3,0.8-2.4,0.1-2.4-1.4c0.1-1.7,1-3.2,2.4-4.1  C535.6,352.8,536.6,353.4,536.6,355z"></path>	<path class="st26" d="M676.2,236.7c-0.1,1.7-1,3.2-2.4,4.1c-1.3,0.8-2.4,0.1-2.4-1.4c0.1-1.7,1-3.2,2.4-4.1  C675.1,234.6,676.2,235.2,676.2,236.7z"></path>	<path class="st26" d="M684.6,231.8c-0.1,1.7-1,3.2-2.4,4.1c-1.3,0.8-2.4,0.1-2.4-1.4c0.1-1.7,1-3.2,2.4-4.1  C683.4,229.6,684.6,230.3,684.6,231.8z"></path>	<path class="st26" d="M692.9,227c-0.1,1.7-1,3.2-2.4,4.1c-1.3,0.8-2.4,0.2-2.4-1.4c0.1-1.7,1-3.2,2.4-4.1  C691.8,224.9,692.9,225.5,692.9,227z"></path>	<path class="st40" d="M362,493.3c-0.1,1.7-1,3.2-2.4,4.1c-1.3,0.8-2.4,0.1-2.4-1.4c0.1-1.7,1-3.2,2.4-4.1  C360.9,491.2,362,491.8,362,493.3z"></path>	<path class="st40" d="M370.4,488.5c-0.1,1.7-1,3.2-2.4,4.1c-1.3,0.8-2.4,0.2-2.4-1.4c0.1-1.7,1-3.2,2.4-4.1  C369.2,486.3,370.4,486.9,370.4,488.5z"></path>	<path class="st40" d="M378.7,483.6c-0.1,1.7-1,3.2-2.3,4.1c-1.3,0.8-2.4,0.1-2.4-1.4c0.1-1.7,1-3.2,2.4-4.1  C377.6,481.5,378.7,482.1,378.7,483.6z"></path>	<path class="st14" d="M671.7,175c-13.2,7.7-25.7,18.3-36.8,31c-15.5-49.6-62.4-65-118.2-32.7c-46.1,26.6-86.2,78.9-107.4,134.3  c-7.1,0.2-14.9,2.5-23.1,7.4c-30,17.3-54.5,59.5-54.5,94.3c0,0.7,0.1,1.4,0.1,2.1c-8.6,0.6-18.1,3.6-28,9.4  c-38.4,22.2-69.6,76.2-69.6,120.5s31.2,62.3,69.6,40.2l367.9-212.5c46.4-26.8,84.1-91.9,84.1-145.5S718.1,148.2,671.7,175z   M667.3,361.3L299.3,573.6c-15.7,9.1-30,10.8-40.3,4.8c-10.2-6-15.9-19.2-15.9-37.3c0-41.4,29.2-92,65.2-112.8  c8.5-5,16.7-7.7,24.1-8.2l8.6-0.6l-0.3-9.8c0-0.2,0-0.5,0-0.7c0-31.2,22.8-70.9,49.9-86.5c6.8-3.8,13.1-6,19-6.1l6-0.2l2.1-5.6  c21.2-55.5,60.9-105.2,103.6-129.7c17.9-10.4,35.3-15.7,50.7-15.7c7.1-0.1,14.1,1.2,20.8,3.7c15.9,6.2,27.4,19.9,33.6,39.6  l4.7,15.3l10.5-12c10.9-12.4,22.5-22.2,34.6-29.2c19.6-11.3,37.5-13.3,50.5-5.9c13,7.5,20.1,24,20.1,46.7  C746.8,274.1,711.1,335.9,667.3,361.3z"></path>	<path class="st49" d="M860.2,375.8h-2.3c-1.3-1.6-3-3-4.8-4l-89.7-51.8c-10.6-6.1-29.2-5.4-41.4,1.7l-83,47.9  c-2.8,1.6-5.4,3.7-7.4,6.3h-2.7v55h0.1c0.3,3.5,2.6,6.9,7.2,9.5l89.7,51.8c10.6,6.1,29.2,5.4,41.4-1.7l82.9-48  c5.9-3.3,9.2-7.6,9.9-11.6h0.2L860.2,375.8L860.2,375.8z"></path>	<path class="st2" d="M725.7,438.8L636,387c-10.6-6.1-9.3-16.9,2.9-23.9l83-47.9c12.2-7.1,30.8-7.9,41.4-1.7l89.8,51.8  c10.6,6.1,9.3,16.9-3,23.9l-83,47.9C754.9,444.2,736.3,444.9,725.7,438.8z"></path>	<path class="st10" d="M851.6,345.1h-2.1c-1.2-1.5-2.7-2.8-4.5-3.7l-83-48c-9.8-5.7-27-5-38.4,1.6l-76.8,44.4  c-2.6,1.4-5,3.4-6.9,5.8h-2.5v29h0.1c0.3,3.3,2.4,6.4,6.6,8.8l83,48c9.8,5.7,27,5,38.4-1.6l76.8-44.4c5.4-3.1,8.5-7,9.2-10.8h0.2  V345.1z"></path>	<path class="st49" d="M860.2,326.2h-2.3c-1.3-1.6-3-3-4.8-4l-89.7-51.8c-10.6-6.1-29.2-5.4-41.4,1.7l-83,47.9  c-2.8,1.6-5.4,3.7-7.4,6.3h-2.7v31.3h0.1c0.3,3.5,2.6,6.9,7.2,9.5l89.7,51.8c10.6,6.1,29.2,5.4,41.4-1.7l82.9-47.9  c5.9-3.3,9.2-7.6,9.9-11.6h0.2L860.2,326.2L860.2,326.2z"></path>	<path class="st2" d="M725.7,389.2L636,337.4c-10.6-6.1-9.3-16.9,2.9-23.9l83-47.9c12.2-7.1,30.8-7.9,41.4-1.7l89.8,51.8  c10.6,6.1,9.3,16.9-3,23.9l-83,47.9C754.9,394.6,736.3,395.3,725.7,389.2z"></path>	<path class="st10" d="M851.6,295.5h-2.1c-1.2-1.5-2.7-2.8-4.5-3.7l-83-48c-9.8-5.7-27-5-38.4,1.6l-76.8,44.4  c-2.6,1.4-5,3.4-6.9,5.8h-2.5v29h0.1c0.3,3.3,2.4,6.4,6.6,8.8l83,48c9.8,5.7,27,5,38.4-1.6l76.8-44.4c5.4-3.1,8.5-7,9.2-10.8h0.2  V295.5z"></path>	<path class="st49" d="M860.2,276.6h-2.3c-1.3-1.6-3-3-4.8-4l-89.7-51.8c-10.6-6.1-29.2-5.4-41.4,1.7l-83,47.9  c-2.8,1.6-5.4,3.7-7.4,6.3h-2.7v31.3h0.1c0.3,3.5,2.6,7,7.2,9.5l89.7,51.8c10.6,6.1,29.2,5.4,41.4-1.7l82.9-47.9  c5.9-3.3,9.2-7.6,9.9-11.6h0.2L860.2,276.6L860.2,276.6z"></path>	<path class="st2" d="M725.7,339.6L636,287.8c-10.6-6.1-9.3-16.9,2.9-23.9l83-47.9c12.2-7.2,30.8-7.9,41.4-1.7l89.8,51.8  c10.6,6.1,9.3,16.9-3,23.9l-83,47.9C754.9,345,736.3,345.8,725.7,339.6z"></path>	<path class="st10" d="M851.6,245.9h-2.1c-1.2-1.5-2.7-2.8-4.5-3.7l-83-48c-9.8-5.7-27-5-38.4,1.6l-76.8,44.4  c-2.6,1.4-5,3.4-6.9,5.8h-2.5v29h0.1c0.3,3.3,2.4,6.4,6.6,8.8l83,47.9c9.8,5.7,27,5,38.4-1.6l76.8-44.3c5.4-3.1,8.5-7,9.2-10.8h0.2  V245.9z"></path>	<path class="st49" d="M860.2,227h-2.3c-1.3-1.6-3-3-4.8-4l-89.7-51.8c-10.6-6.1-29.2-5.4-41.4,1.7l-83,47.9  c-2.8,1.6-5.4,3.7-7.4,6.3h-2.7v31.3h0.1c0.3,3.5,2.6,6.9,7.2,9.5l89.7,51.8c10.6,6.1,29.2,5.4,41.4-1.7l82.9-47.9  c5.9-3.3,9.2-7.6,9.9-11.6h0.2L860.2,227L860.2,227z"></path>	<path class="st2" d="M725.7,290L636,238.2c-10.6-6.1-9.3-16.9,2.9-23.9l83-47.9c12.2-7.2,30.8-7.9,41.4-1.7l89.8,51.7  c10.6,6.1,9.3,16.9-3,23.9l-83,47.9C754.9,295.4,736.3,296.1,725.7,290z"></path>	<path class="st10" d="M851.6,196.3h-2.1c-1.2-1.5-2.7-2.8-4.5-3.7l-83-48c-9.8-5.7-27-5-38.4,1.6l-76.8,44.4  c-2.6,1.4-5,3.4-6.9,5.8h-2.5v29h0.1c0.3,3.3,2.4,6.4,6.6,8.8l83,48c9.8,5.7,27,5,38.4-1.6l76.8-44.4c5.4-3.1,8.5-7,9.2-10.8h0.2  V196.3z"></path>	<path class="st5" d="M860.2,177.4h-2.3c-1.3-1.6-3-3-4.8-4l-89.7-51.8c-10.6-6.1-29.2-5.4-41.4,1.7l-83,47.9  c-2.8,1.6-5.4,3.7-7.4,6.3h-2.7v31.3h0.1c0.3,3.5,2.6,6.9,7.2,9.5l89.7,51.8c10.6,6.1,29.2,5.4,41.4-1.7l83-47.9  c5.9-3.3,9.2-7.6,9.9-11.6h0.2v-31.4H860.2z"></path>	<path class="st38" d="M725.7,240.4l-89.8-51.8c-10.6-6.1-9.3-16.9,2.9-23.9l83-47.9c12.2-7.2,30.8-7.9,41.4-1.7l89.8,51.8  c10.6,6.1,9.3,16.9-3,23.9l-83,47.9C754.9,245.8,736.3,246.6,725.7,240.4z"></path>	<path class="st10" d="M851.6,146.7h-2.1c-1.2-1.5-2.7-2.8-4.5-3.7l-83-48c-9.8-5.7-27-5-38.4,1.6l-76.8,44.4  c-2.6,1.4-5,3.4-6.9,5.8h-2.5v29h0.1c0.3,3.3,2.4,6.4,6.6,8.8l83,48c9.8,5.7,27,5,38.4-1.6l76.8-44.4c5.4-3.1,8.5-7,9.2-10.8h0.2  V146.7z"></path>	<path class="st49" d="M860.2,128.6h-2.3c-1.3-1.6-3-3-4.8-4l-89.7-51.8c-10.6-6.1-29.2-5.4-41.4,1.7l-83,47.9  c-2.8,1.6-5.4,3.7-7.4,6.3h-2.7v31.3h0.1c0.3,3.5,2.6,6.9,7.2,9.5l89.7,51.8c10.6,6.1,29.2,5.4,41.4-1.7l82.9-48  c5.9-3.3,9.2-7.6,9.9-11.6h0.2L860.2,128.6L860.2,128.6z"></path>	<path class="st2" d="M725.7,191.6L636,139.8c-10.6-6.1-9.3-16.9,2.9-23.9l83-47.9c12.2-7.2,30.8-7.9,41.4-1.7l89.8,51.8  c10.6,6.1,9.3,16.9-3,23.9l-83,47.9C754.9,197,736.3,197.8,725.7,191.6z"></path>	<path class="st49" d="M794.6,111h-97.9v19.4c0,15.8,21.9,28.5,48.9,28.5s49-12.7,49-28.5c0-0.1,0-0.3,0-0.4l0,0V111z"></path>	<ellipse class="st2" cx="745.6" cy="111.1" rx="49" ry="28.5"></ellipse>	<path class="st10" d="M714.8,111.3c0,9.9,13.7,18,30.8,18s30.8-8,30.8-18s-13.8-17.9-30.8-17.9S714.8,101.4,714.8,111.3z"></path>	<path class="st10" d="M745.6,110.3c11.7,0,21.9,3.8,27.2,9.4c2.2-2.2,3.5-5.3,3.6-8.5c0-9.9-13.8-17.9-30.8-17.9s-30.8,8-30.8,17.9  c0.1,3.2,1.4,6.3,3.6,8.5C723.6,114.1,733.9,110.3,745.6,110.3z"></path>	<g id="Tab">		<path class="st50" d="M639.1,1006.9l-1.2-0.7c-2-1.3-3.2-3.5-3.4-5.9V602.5c0.1-2.4,1.4-4.6,3.4-6l256.3-148   c2.1-1.1,4.6-1.1,6.9,0l1.2,0.7c2,1.3,3.3,3.5,3.4,5.9V853c-0.1,2.4-1.4,4.5-3.4,5.9L646,1006.9   C643.8,1008,641.3,1008,639.1,1006.9z"></path>		<path class="st7" d="M905.7,454.6c-0.2-1.8-1.6-2.4-3.3-1.4L646,601.2c-1,0.6-1.8,1.5-2.4,2.5l-8-4.6c0.6-1,1.4-1.9,2.4-2.5   l256.3-148c2.1-1.1,4.6-1.1,6.9,0l1.2,0.7C904.2,450.5,905.4,452.4,905.7,454.6z"></path>		<path class="st7" d="M645.4,1007.1c-2,0.8-4.2,0.7-6.3-0.3l-1.2-0.7c-2-1.3-3.2-3.5-3.4-5.9V602.5c0-1.2,0.4-2.3,1-3.3l8,4.6   c-0.6,1-1,2.2-1,3.3v397.8C642.5,1006.9,643.7,1007.8,645.4,1007.1z"></path>	</g>	<g id="Tabs">		<g id="Tab-2">			<path class="st1" d="M727.3,859.7L726,859c-2.1-1.4-3.5-3.7-3.6-6.4v-77.1c0.1-2.6,1.5-5,3.6-6.4l251-145c2.3-1.2,5.1-1.2,7.4,0    l1.2,0.8c2.1,1.4,3.5,3.7,3.6,6.4v77.1c-0.1,2.6-1.5,5-3.6,6.4L734.7,859.7C732.3,860.8,729.6,860.8,727.3,859.7z"></path>			<path class="st0" d="M989.3,630.6c-0.2-1.9-1.8-2.6-3.6-1.5l-251,145.1c-1.1,0.7-2,1.6-2.6,2.7l-8.6-5c0.6-1.1,1.5-2.1,2.6-2.7    l251-145c2.3-1.2,5.1-1.2,7.4,0l1.2,0.8C987.5,626.3,989,628.3,989.3,630.6z"></path>			<path class="st0" d="M734.1,860c-2.2,0.9-4.6,0.8-6.8-0.3L726,859c-2.1-1.4-3.5-3.8-3.6-6.4v-77.1c0-1.3,0.4-2.5,1.1-3.6l8.6,5    c-0.6,1.1-1,2.3-1.1,3.6v77.1C731,859.7,732.3,860.6,734.1,860z"></path>			<path class="st14" d="M770.1,768.9c14.3-8.3,26-1.8,26,14.3c0,16.2-11.6,35.9-26,43.9s-26,1.7-26-14.2S755.9,777.2,770.1,768.9z"></path>		</g>		<g id="Tab-3">			<path class="st1" d="M727.3,964.2l-1.3-0.7c-2.1-1.4-3.5-3.7-3.6-6.4V880c0.1-2.6,1.5-5,3.6-6.4l251-145c2.3-1.2,5.1-1.2,7.4,0    l1.3,0.7c2.1,1.4,3.5,3.7,3.6,6.4v77.1c-0.1,2.6-1.5,5-3.6,6.4l-251,145C732.3,965.4,729.6,965.4,727.3,964.2z"></path>			<path class="st0" d="M989.3,735.2c-0.2-1.9-1.8-2.6-3.6-1.5l-251,145c-1.1,0.7-2,1.6-2.6,2.7l-8.6-5c0.6-1.1,1.5-2.1,2.6-2.7    l251-145c2.3-1.2,5.1-1.2,7.4,0l1.3,0.7C987.6,730.6,989,732.7,989.3,735.2z"></path>			<path class="st0" d="M734.1,964.5c-2.2,0.9-4.6,0.8-6.8-0.3l-1.3-0.7c-2.1-1.4-3.5-3.8-3.6-6.4V880c0-1.3,0.4-2.5,1.1-3.6l8.6,5    c-0.6,1.1-1,2.3-1.1,3.6v77.1C731,964.1,732.3,965.2,734.1,964.5z"></path>			<path class="st14" d="M770.1,873.5c14.3-8.3,26-1.8,26,14.3s-11.6,35.9-26,43.9c-14.3,8.1-26,1.6-26-14.3    C744.2,901.5,755.9,881.8,770.1,873.5z"></path>		</g>		<g id="Tab-4">			<path class="st1" d="M727.3,685.1l-1.3-0.7c-2.1-1.4-3.5-3.7-3.6-6.4v-77.2c0.1-2.6,1.5-5,3.6-6.4l251-145c2.3-1.2,5.1-1.2,7.4,0    l1.3,0.7c2.1,1.4,3.5,3.7,3.6,6.4v77.1c-0.1,2.6-1.5,5-3.6,6.4l-251,145.1C732.3,686.2,729.6,686.2,727.3,685.1z"></path>			<path class="st0" d="M989.3,455.9c-0.2-1.9-1.8-2.6-3.6-1.5l-251,145.1c-1.1,0.7-2,1.6-2.6,2.7l-8.6-5c0.6-1.1,1.5-2.1,2.6-2.7    l251-145.1c2.3-1.2,5.1-1.2,7.4,0l1.3,0.7C987.6,451.5,989,453.6,989.3,455.9z"></path>			<path class="st0" d="M734.1,685.3c-2.2,0.9-4.6,0.8-6.8-0.3l-1.3-0.7c-2.1-1.4-3.5-3.8-3.6-6.4v-77.1c0-1.3,0.4-2.5,1.1-3.6    l8.6,5c-0.6,1.1-1,2.3-1.1,3.6v77.1C731,685.1,732.3,686,734.1,685.3z"></path>			<path class="st14" d="M770.1,594.2c14.3-8.3,26-1.8,26,14.3c0,16.3-11.6,35.9-26,43.9s-26,1.6-26-14.3    C744.3,622.2,755.9,602.5,770.1,594.2z"></path>		</g>		<g id="Tab-5">			<path class="st5" d="M745,782.9l-1.3-0.7c-2.1-1.4-3.5-3.7-3.6-6.4v-77.1c0.1-2.6,1.5-5,3.6-6.4l251-145.1c2.3-1.2,5.1-1.2,7.4,0    l1.3,0.7c2.1,1.4,3.5,3.7,3.6,6.4v77.1c-0.1,2.6-1.5,5-3.6,6.4L752.2,782.9C750,784.1,747.3,784.1,745,782.9z"></path>			<path class="st38" d="M1006.9,553.8c-0.3-1.9-1.8-2.6-3.6-1.5l-251.1,145c-1.1,0.7-2,1.6-2.6,2.7l-8.6-5c0.6-1.1,1.5-2.1,2.6-2.7    l251-145.1c2.3-1.2,5.1-1.2,7.4,0l1.3,0.7C1005.2,549.4,1006.5,551.5,1006.9,553.8z"></path>			<path class="st38" d="M751.7,783.2c-2.2,0.9-4.6,0.8-6.8-0.3l-1.3-0.7c-2.1-1.4-3.5-3.8-3.6-6.4v-77.1c0-1.3,0.4-2.5,1.1-3.6    l8.6,5c-0.6,1.1-1,2.3-1.1,3.6v77.1C748.6,782.9,749.9,783.9,751.7,783.2z"></path>			<path class="st38" d="M787.8,692.1c14.2-8.3,26-1.8,26,14.3c0,16.2-11.6,35.9-26,43.9c-14.3,8.1-26,1.6-26-14.3    C761.8,720.1,773.5,700.4,787.8,692.1z"></path>			<path class="st40" d="M788.3,738.7c-0.9,0.7-2.2,0.8-3.1,0.2l-11.4-8.6c-1.5-1.1-1.3-4.3,0.4-7.2c1.7-2.8,4.4-4,6-2.9l8,6    l22-47.3c1.4-2.9,4-5,5.9-4.4c1.9,0.5,2.2,3.3,0.9,6.3l-25.3,54.1c-0.7,1.5-1.8,2.9-3.2,3.8L788.3,738.7z"></path>		</g>	</g>	<path class="st51" d="M1006.8,668.3l-7.3-4.2l0,0c-3.1-1.8-7.1,0-9.1,1.2l-4.5-2.6l0,0c-5.6-3.3-13.1,3.6-14.9,5.3l-1.9-1.1l0,0  c-5.9-3.5-16.5,5.9-16.5,5.9v-35.1l4.6-2.2l-7.4-4.2l0,0l0,0l0,0c-1.7-0.9-4-0.8-6.6,0.7l0,0c-5.2,2.9-9.3,10.2-9.3,16.2v81.3  c-6.7-5-13.8-8.1-20.1-6.9c-5.7,1-10.7,5.8-12.1,8.4c-3,5.5,2,8.9,8.6,16.4c6.6,7.5,12.2,16.4,18.2,21.9c6,5.6,10.2,7,10.2,7v10.6  l7.2,4.1l47.7-35.9v-10.6c0,0,6.8-27.2,9-38.5c2.1-10.9,4-28.4,0.4-37.4L1006.8,668.3L1006.8,668.3z"></path>	<path class="st52" d="M1006.8,668.3l-7.3-4.2l0,0c-3.1-1.8-7.1,0-9.1,1.2l-4.5-2.6l0,0c-5.6-3.3-13.1,3.6-14.9,5.3l-1.9-1.1l0,0  c-5.9-3.5-16.5,5.9-16.5,5.9v-35.1l4.6-2.2l-7.4-4.2l0,0l0,0l0,0c-1.7-0.9-4-0.8-6.6,0.7l0,0c-5.2,2.9-9.3,10.2-9.3,16.2v81.3  c-6.7-5-13.8-8.1-20.1-6.9c-5.7,1-10.7,5.8-12.1,8.4c-3,5.5,2,8.9,8.6,16.4c6.6,7.5,12.2,16.4,18.2,21.9c6,5.6,10.2,7,10.2,7v10.6  l7.2,4.1l47.7-35.9v-10.6c0,0,6.8-27.2,9-38.5c2.1-10.9,4-28.4,0.4-37.4L1006.8,668.3L1006.8,668.3z"></path>	<path class="st51" d="M997.8,673.8l5.6-4c-0.1-0.4-0.2-0.7-0.4-1.1l2-0.1l-4.4-0.2l-7.5-4c-0.9,0.3-1.7,0.8-2.5,1.2l2.3,1.3  L997.8,673.8z"></path>	<path class="st51" d="M977.9,672.5l5.3-4l-7.3-4.3c-1.7,1.1-3.4,2.4-4.8,3.8l5.1,2.9L977.9,672.5z"></path>	<polygon class="st51" points="967,672.1 959.9,668 959.9,667.9 959.9,677 968.2,673.9  "></polygon>	<path class="st52" d="M997.8,673.8l5.6-4c-0.1-0.4-0.2-0.7-0.4-1.1l2-0.1l-4.4-0.2l-7.5-4c-0.9,0.3-1.7,0.8-2.5,1.2l2.3,1.3  L997.8,673.8z"></path>	<path class="st52" d="M977.9,672.5l5.3-4l-7.3-4.3c-1.7,1.1-3.4,2.4-4.8,3.8l5.1,2.9L977.9,672.5z"></path>	<polygon class="st52" points="967,672.1 959.9,668 959.9,667.9 959.9,677 968.2,673.9  "></polygon>	<path class="st53" d="M945.9,790.9v-10.6c0,0-4.2-1.4-10.2-7c-5.9-5.6-11.6-14.4-18.2-21.9c-6.5-7.5-11.6-10.9-8.6-16.4  c1.4-2.6,6.5-7.4,12.1-8.4c6.3-1.1,13.4,1.9,20.1,7v-81.3c0-6,4.1-13.2,9.3-16.2l0,0c5.2-2.9,9.3-0.6,9.3,5.4V677  c0,0,12.8-11.4,18.1-4.4c0,0,12.6-13.2,18.3-2c0,0,9.3-7.5,13.4,1.2c4.1,8.7,2.2,27.1,0,38.4c-2.2,11.3-9,38.5-9,38.5v10.6  L945.9,790.9z"></path>	<path class="st52" d="M959.9,692.2c0,0,1.2-16.2,7.2-20.1l-0.2,0.1c-2.4,1.3-4.7,2.9-6.9,4.7v-0.3c0,0.1,0,0.2,0,0.3L959.9,692.2z"></path>	<path class="st52" d="M977.9,672.5v14.9c0,0,1.6-15.3,5.1-18.9C981.2,669.6,979.5,671,977.9,672.5z"></path>	<path class="st52" d="M996.3,670.5L996.3,670.5v14.9c0,0,0.9-15,4.1-17.2C999,668.8,997.5,669.5,996.3,670.5z"></path>	<path class="st40" d="M943.3,621.7L943.3,621.7c-1.1,0.7-2.1,0.3-2.1-0.9v-11.7c0.1-1.4,0.9-2.6,2.1-3.3l0,0  c1.1-0.7,2.1-0.3,2.1,0.9v11.7C945.2,619.8,944.5,621,943.3,621.7z"></path>	<path class="st40" d="M925.7,640.2L925.7,640.2c-0.8,1.4-2.1,2.2-2.9,1.7L916,638c-0.8-0.5-0.8-2,0-3.4l0,0  c0.8-1.4,2.1-2.2,2.9-1.7l6.8,3.9C926.5,637.3,926.5,638.8,925.7,640.2z"></path>	<path class="st40" d="M918.4,664.5v0.3c-0.1,1.5-1,2.8-2.2,3.5l-9.3,5.4c-1.2,0.7-2.2,0.3-2.2-0.9v-0.3c0.1-1.5,1-2.8,2.2-3.5  l9.3-5.4C917.4,662.9,918.4,663.3,918.4,664.5z"></path>	<path class="st40" d="M968.1,636.2v-0.3c0.1-1.5,1-2.8,2.2-3.5l9.3-5.4c1.2-0.7,2.2-0.3,2.2,0.9v0.3c-0.1,1.5-1,2.8-2.2,3.5  l-9.3,5.4C969.1,637.9,968.1,637.5,968.1,636.2z"></path>	<path class="st40" d="M960.9,620L960.9,620c-0.8-0.5-0.8-2,0-3.4l6.8-11.8c0.8-1.4,2.1-2.2,2.9-1.7l0,0c0.8,0.5,0.8,2,0,3.4  l-6.8,11.8C963,619.7,961.7,620.4,960.9,620z"></path>	<path class="st2" d="M637.7,549.4l-1.4-82.1c-0.1-7.6-4.8-16.2-10.5-19.4l-75.6-42c-2.4-1.4-4.7-1.5-6.5-0.5l8.6-5.2  c1.8-1,4-1,6.7,0.4l75.6,41.9c5.7,3.1,10.4,11.8,10.5,19.4l1.4,82.1c0.1,3.8-1,6.6-2.9,8l0,0l-0.2,0.1c-0.2,0.1-0.4,0.3-0.6,0.4  l-8.2,5C636.5,556.1,637.8,553.3,637.7,549.4z"></path>	<path class="st54" d="M543,405.7l0.4-0.3L543,405.7L543,405.7z"></path>	<path class="st49" d="M550.1,405.9l75.6,41.9c5.7,3.1,10.4,11.8,10.5,19.4l1.4,82.1c0.1,3.9-1.1,6.8-3.1,8.2  c-1.8,1.2-4.2,1.2-7-0.2l-75.6-41.9c-5.7-3.1-10.4-11.8-10.5-19.4l-1.4-82.1c-0.1-3.8,1.1-6.7,3-8.1l0.4-0.3l0.2-0.1  C545.4,404.4,547.7,404.6,550.1,405.9z"></path>	<path class="st2" d="M617.2,561.7l-1.3-82.1c-0.1-7.6-4.8-16.2-10.5-19.4l-75.7-41.9c-2.4-1.4-4.7-1.5-6.5-0.6l8.6-5.2  c1.8-1,4-1,6.7,0.4l75.6,41.9c5.7,3.1,10.4,11.8,10.5,19.4l1.4,82.1c0.1,3.8-1,6.6-2.9,8l0,0l-0.2,0.1c-0.2,0.1-0.4,0.3-0.6,0.4  l-8.2,5C616,568.5,617.2,565.6,617.2,561.7z"></path>	<path class="st54" d="M522.5,418l0.4-0.3C522.8,417.9,522.7,417.9,522.5,418L522.5,418z"></path>	<path class="st49" d="M529.6,418.2l75.6,41.9c5.7,3.1,10.4,11.8,10.5,19.4l1.4,82.1c0.1,3.9-1.1,6.8-3.1,8.2  c-1.8,1.2-4.2,1.2-7-0.3l-75.6-41.9c-5.7-3.1-10.4-11.8-10.5-19.4l-1.4-82.1c-0.1-3.8,1.1-6.7,3-8.1c0.1-0.1,0.3-0.2,0.4-0.3  l0.2-0.1C524.9,416.7,527.1,416.8,529.6,418.2z"></path>	<path class="st2" d="M596.7,574l-1.4-82.1c-0.1-7.5-4.8-16.2-10.5-19.4l-75.6-41.9c-2.4-1.4-4.7-1.5-6.5-0.6l8.6-5.2  c1.8-1,4-1,6.7,0.4l75.6,41.9c5.7,3.1,10.4,11.8,10.5,19.4l1.4,82.1c0.1,3.8-1,6.6-2.9,8l0,0l-0.2,0.1c-0.2,0.1-0.4,0.2-0.6,0.3  l-8.2,5C595.4,580.8,596.7,577.9,596.7,574z"></path>	<path class="st54" d="M502,430.4l0.4-0.3C502.3,430.2,502.1,430.3,502,430.4L502,430.4z"></path>	<path class="st49" d="M509.1,430.6l75.6,41.9c5.7,3.1,10.4,11.8,10.5,19.4l1.4,82.1c0.1,3.9-1.1,6.8-3.1,8.2  c-1.8,1.2-4.2,1.2-7-0.2l-75.6-41.9c-5.7-3.1-10.4-11.8-10.5-19.4l-1.4-82c-0.1-3.8,1.1-6.7,3-8.1c0.1-0.1,0.3-0.2,0.4-0.3l0.2-0.1  C504.4,429,506.6,429.2,509.1,430.6z"></path>	<path class="st2" d="M576.1,586.3l-1.4-82.1c-0.1-7.6-4.8-16.2-10.5-19.4l-75.7-41.8c-2.4-1.4-4.7-1.5-6.5-0.5l8.6-5.2  c1.8-1,4-1,6.7,0.4l75.6,41.9c5.7,3.1,10.4,11.8,10.5,19.4l1.4,82.1c0.1,3.8-1,6.6-2.9,8l0,0l-0.2,0.1c-0.2,0.1-0.4,0.3-0.6,0.4  l-8.2,5C574.9,593,576.1,590.3,576.1,586.3z"></path>	<path class="st54" d="M481.5,442.7l0.4-0.3L481.5,442.7L481.5,442.7z"></path>	<path class="st49" d="M488.6,442.9l75.6,41.9c5.7,3.1,10.4,11.8,10.5,19.4l1.4,82.1c0.1,3.9-1.1,6.8-3.1,8.2  c-1.8,1.2-4.2,1.2-7-0.2l-75.6-41.9c-5.7-3.1-10.4-11.8-10.5-19.4l-1.4-82.1c-0.1-3.8,1.1-6.7,3-8.1l0.4-0.3l0.2-0.1  C483.9,441.4,486.1,441.5,488.6,442.9z"></path>	<path class="st2" d="M555.9,599.3l-1.4-82.1c-0.1-7.6-4.8-16.2-10.5-19.4l-75.6-41.9c-2.4-1.4-4.7-1.5-6.5-0.6l8.6-5.2  c1.8-1,4-1,6.7,0.4l75.6,41.9c5.7,3.1,10.4,11.8,10.5,19.4l1.4,82.1c0.1,3.8-1,6.6-2.9,8l0,0l-0.2,0.1c-0.2,0.1-0.4,0.2-0.6,0.4  l-8.2,5C554.8,606.1,556,603.2,555.9,599.3z"></path>	<path class="st54" d="M461.4,455.7l0.4-0.3C461.6,455.5,461.5,455.6,461.4,455.7L461.4,455.7z"></path>	<path class="st49" d="M468.4,455.8l75.6,41.9c5.7,3.1,10.4,11.8,10.5,19.4l1.4,82.1c0.1,3.9-1.1,6.8-3.1,8.2  c-1.8,1.2-4.2,1.3-7-0.2l-75.6-41.9c-5.7-3.1-10.4-11.8-10.5-19.4l-1.4-82.1c-0.1-3.8,1.1-6.7,3-8.1c0.1-0.1,0.3-0.2,0.4-0.3  l0.2-0.1C463.7,454.4,465.9,454.5,468.4,455.8z"></path>	<path class="st38" d="M535.4,611.6l-1.4-82.1c-0.1-7.6-4.8-16.2-10.5-19.4l-75.6-41.9c-2.4-1.4-4.7-1.5-6.5-0.6l8.6-5.2  c1.8-1,4-1,6.7,0.4l75.6,41.9c5.7,3.1,10.4,11.8,10.5,19.4l1.4,82.1c0.1,3.8-1,6.6-2.9,8l0,0l-0.2,0.1c-0.2,0.1-0.4,0.2-0.6,0.3  l-8.2,5C534.3,618.4,535.5,615.5,535.4,611.6z"></path>	<path class="st54" d="M440.9,468l0.4-0.3L440.9,468L440.9,468z"></path>	<path class="st5" d="M447.9,468.1l75.6,41.9c5.7,3.1,10.4,11.8,10.5,19.4l1.4,82.1c0.1,3.9-1.1,6.8-3.1,8.2c-1.8,1.2-4.2,1.2-7-0.2  l-75.6-42c-5.7-3.1-10.4-11.8-10.5-19.4l-1.4-82.1c-0.1-3.8,1.1-6.7,3-8.1l0.4-0.3l0.2-0.1C443.2,466.7,445.4,466.8,447.9,468.1z"></path>	<path class="st2" d="M514.9,623.9l-1.4-82.1c-0.1-7.6-4.8-16.2-10.5-19.4l-75.6-41.9c-2.4-1.4-4.7-1.5-6.5-0.5l8.6-5.2  c1.8-1,4-1,6.7,0.4l75.6,41.9c5.7,3.1,10.4,11.8,10.5,19.4l1.4,82.1c0.1,3.8-1,6.6-2.9,8l0,0l-0.2,0.1c-0.2,0.1-0.4,0.2-0.6,0.4  l-8.2,5C513.8,630.7,515,627.9,514.9,623.9z"></path>	<path class="st54" d="M420.3,480.3l0.4-0.3L420.3,480.3L420.3,480.3z"></path>	<path class="st49" d="M427.4,480.5l75.6,41.9c5.7,3.1,10.4,11.8,10.5,19.4l1.4,82.1c0.1,3.9-1.1,6.8-3.1,8.2  c-1.8,1.2-4.2,1.2-7-0.3l-75.6-41.9c-5.7-3.1-10.4-11.8-10.5-19.4l-1.4-82c-0.1-3.8,1.1-6.7,3-8.1l0.4-0.3l0.2-0.1  C422.7,479.1,424.9,479.2,427.4,480.5z"></path>	<path class="st2" d="M494.4,636.3l-1.4-82.1c-0.1-7.6-4.8-16.2-10.5-19.4l-75.6-41.9c-2.4-1.4-4.7-1.5-6.5-0.6l8.6-5.2  c1.8-1,4-1,6.7,0.4l75.6,41.9c5.7,3.1,10.4,11.8,10.5,19.4l1.4,82.1c0.1,3.8-1,6.6-2.9,8l0,0l-0.2,0.1c-0.2,0.1-0.4,0.2-0.6,0.4  l-8.2,5C493.3,643,494.5,640.2,494.4,636.3z"></path>	<path class="st54" d="M399.9,492.6l0.4-0.3C400.1,492.5,400,492.6,399.9,492.6L399.9,492.6z"></path>	<path class="st49" d="M406.9,492.8l75.6,41.9c5.7,3.1,10.4,11.8,10.5,19.4l1.4,82.1c0.1,3.9-1.1,6.8-3.1,8.2  c-1.8,1.2-4.2,1.3-7-0.2l-75.6-42c-5.7-3.1-10.4-11.8-10.5-19.4l-1.4-82.1c-0.1-3.8,1.1-6.7,3-8.1c0.1-0.1,0.3-0.2,0.4-0.3l0.2-0.1  C402.2,491.3,404.4,491.5,406.9,492.8z"></path>	<path class="st2" d="M473.9,648.5l-1.4-82.1c-0.1-7.6-4.8-16.2-10.5-19.4L386.4,505c-2.4-1.4-4.7-1.5-6.5-0.6l8.6-5.2  c1.8-1,4-1,6.7,0.4l75.6,41.9c5.7,3.1,10.4,11.8,10.5,19.4l1.4,82.1c0.1,3.8-1.1,6.6-2.9,8l0,0l-0.2,0.1c-0.2,0.1-0.4,0.2-0.6,0.3  l-8.2,5C472.8,655.4,474,652.5,473.9,648.5z"></path>	<path class="st54" d="M379.2,504.9l0.4-0.3L379.2,504.9L379.2,504.9z"></path>	<path class="st49" d="M386.4,505.1l75.6,41.9c5.7,3.1,10.4,11.8,10.5,19.4l1.4,82.1c0.1,3.9-1.1,6.8-3.1,8.2  c-1.8,1.2-4.2,1.2-7-0.2l-75.6-41.9c-5.7-3.1-10.4-11.8-10.5-19.4l-1.4-82.1c-0.1-3.8,1.1-6.7,3-8.1l0.4-0.3l0.2-0.1  C381.7,503.6,383.9,503.7,386.4,505.1z"></path>	<path class="st55" d="M694.6,758.3c0.1,27.7-19.4,61.4-43.5,75.4c-24,13.9-43.7,2.7-43.8-25c-0.1-27.7,19.4-61.4,43.5-75.4  C674.9,719.4,694.5,730.6,694.6,758.3z"></path>	<path class="st40" d="M638.7,782.2c-3.7,2.2-7.2,9.7-3.5,11.4c16.3,8.2,0.8,0.4,17.1,8.5c1.1,0.4,2.4,0.3,3.4-0.4  c1.4-0.9,2.5-2.1,3.4-3.5l19.3-32c3.5-5.9,0.2-9.5-3.6-7.3c-1.3,0.8-2.4,2-3.2,3.4l-16,26.4c-15.1-7.6,1.4,0.8-13.6-6.8  C640.9,781.5,639.7,781.6,638.7,782.2z"></path>	<path class="st38" d="M597.5,801c0-0.1,0-0.2,0-0.4c0-0.1,0-0.5,0-0.8c0-0.3,0-0.6,0-0.9c0-0.3,0-0.5,0.1-0.7  c0.1-0.2,0-0.6,0.1-0.8c0.1-0.3,0-0.4,0-0.5c0-0.4,0.1-0.8,0.1-1.2c0-0.2,0-0.5,0.1-0.7c0.1-0.2,0-0.2,0-0.2  c0.1-0.7,0.2-1.4,0.3-2.2l0,0c0-0.1,0-0.2,0-0.3c0.1-0.6,0.2-1.2,0.3-1.8l0.1-0.3l0.2-0.9c0.1-0.4,0.1-0.7,0.2-1  c0.1-0.3,0.1-0.4,0.1-0.6c0-0.2,0.2-0.6,0.2-0.9c0.1-0.3,0.1-0.5,0.2-0.7c0.1-0.2,0.2-0.6,0.2-0.9c0-0.3,0.2-0.6,0.3-0.9l0.1-0.5  c0.1-0.4,0.2-0.8,0.4-1.3c0.1-0.3,0.2-0.5,0.2-0.8c0-0.1,0.1-0.2,0.1-0.2c0.2-0.7,0.5-1.5,0.7-2.2l0,0c0-0.1,0-0.1,0.1-0.2  c0.2-0.7,0.4-1.3,0.7-2l0.1-0.3l0.3-0.7c0.1-0.4,0.3-0.7,0.4-1.1l0.3-0.7c0.1-0.3,0.2-0.5,0.3-0.8c0.1-0.3,0.2-0.4,0.2-0.6  c0.2-0.4,0.3-0.8,0.5-1.2l0.3-0.6c0-0.1,0.1-0.2,0.1-0.2c0.3-0.7,0.6-1.4,0.9-2.1v-0.1l0.3-0.6c0.3-0.5,0.5-1.1,0.8-1.6l0.1-0.2  l0.7-1.3l0.5-1l0.1-0.2c0.6-1.1,1.2-2.2,1.9-3.3c0-0.1,0.1-0.2,0.2-0.3c0.2-0.3,0.3-0.6,0.5-0.8l0.8-1.3l0.8-1.2l0.8-1.3  c0.1-0.1,0.2-0.3,0.3-0.4c0.1-0.1,0.2-0.3,0.3-0.4c0.8-1.2,1.6-2.3,2.5-3.5l0,0l0,0c0.6-0.8,1.2-1.6,1.8-2.4l0.1-0.1  c0.5-0.6,0.9-1.1,1.4-1.7l0.3-0.3l0,0c0.5-0.7,1.1-1.3,1.7-1.9l0.1-0.1l0.5-0.6c0.4-0.4,0.7-0.8,1.1-1.2l0.2-0.2  c0.2-0.3,0.5-0.5,0.7-0.8l0.8-0.9l0.3-0.3l0.8-0.8c0.2-0.2,0.5-0.5,0.7-0.7l0.4-0.4l0.9-0.8c0.2-0.2,0.4-0.4,0.6-0.6l0.5-0.4  l0.9-0.8c0.2-0.2,0.4-0.3,0.5-0.5c0.2-0.2,0.4-0.3,0.6-0.5l0.9-0.7l0.5-0.4l0.7-0.6l0.8-0.6l0.3-0.3l1-0.7c0.2-0.2,0.5-0.3,0.7-0.5  l0.2-0.1c0.6-0.4,1.2-0.8,1.8-1.2l0,0l0.1-0.1c0.6-0.4,1.1-0.7,1.7-1l0.4-0.3c0.5-0.3,0.9-0.5,1.4-0.8l0.5-0.3l0.7-0.4l0.6-0.3  l0.9-0.4l0.6-0.3l0.3-0.1c0.6-0.3,1.2-0.5,1.7-0.7c0.6-0.2,1.2-0.5,1.7-0.7l0.2-0.1l0.6-0.2c0.3-0.1,0.6-0.2,0.9-0.3  c0.3-0.1,0.3-0.1,0.4-0.1l0.8-0.2l0.6-0.2l0.6-0.1l0.8-0.2l0.4-0.1l0.7-0.1l0.9-0.1l0.3-0.1l0.7-0.1l0.9-0.1h0.3h0.6h1.1h0.3h0.5  c0.5,0,0.9,0,1.4,0.1h0.4l0.6,0.1l0.4,0.1c0.5,0.1,1,0.1,1.5,0.2l0,0l0.4,0.1c0.4,0.1,0.8,0.2,1.2,0.3l0.6,0.2l0.8,0.2l0.2,0.1  c0.4,0.1,0.8,0.3,1.1,0.5l0.6,0.2c0.5,0.3,1.1,0.5,1.6,0.8l0,0l9.8,5.8c-0.5-0.3-1.1-0.6-1.6-0.8l-0.6-0.2  c-0.4-0.2-0.8-0.3-1.1-0.5c-0.4-0.1-0.6-0.2-1-0.3l-0.6-0.2c-0.4-0.1-0.8-0.2-1.2-0.3l-0.4-0.1c-0.5-0.1-1-0.2-1.6-0.3l-0.4-0.1  c-0.3,0-0.6-0.1-1-0.1c-0.4,0-0.9-0.1-1.4-0.1c-0.3,0-0.5,0-0.8,0h-1.1l-0.9,0.1l-0.9,0.1l-1,0.1l-0.9,0.1l-1.1,0.2l-0.8,0.2  c-0.4,0.1-0.8,0.2-1.2,0.3c-0.4,0.1-0.5,0.1-0.8,0.2c-0.4,0.1-0.9,0.3-1.3,0.4l-0.6,0.2c-1.3,0.5-2.6,1-4,1.6l-0.6,0.3  c-0.5,0.2-0.9,0.5-1.4,0.7l-0.7,0.4c-0.6,0.3-1.3,0.7-1.9,1c-0.6,0.3-1.4,0.8-2.1,1.3l-0.1,0.1c-0.7,0.4-1.4,0.9-2,1.4  c-0.2,0.2-0.5,0.3-0.7,0.5c-0.5,0.3-0.9,0.6-1.3,1l-0.8,0.6l-1.2,0.9l-0.9,0.7l-1.1,1l-0.9,0.8l-1.1,1l-0.9,0.8  c-0.4,0.3-0.7,0.7-1.1,1.1l-0.8,0.8c-0.4,0.4-0.8,0.8-1.1,1.2c-0.4,0.4-0.5,0.5-0.7,0.8c-0.4,0.5-0.9,0.9-1.3,1.4l-0.5,0.6  c-0.6,0.7-1.2,1.4-1.8,2.1l-0.3,0.3c-0.5,0.6-1,1.2-1.5,1.8c-0.6,0.8-1.2,1.6-1.8,2.4l0,0c-0.8,1.1-1.7,2.3-2.5,3.5l-0.6,0.8  c-0.3,0.4-0.6,0.9-0.9,1.3s-0.5,0.8-0.7,1.2c-0.2,0.4-0.6,0.9-0.8,1.4l-0.7,1.1c-0.6,1.1-1.3,2.2-1.9,3.3c-0.2,0.4-0.4,0.8-0.6,1.2  c-0.2,0.4-0.5,0.9-0.7,1.3c-0.3,0.6-0.6,1.2-0.9,1.8l-0.3,0.6c-0.4,0.8-0.7,1.6-1.1,2.4c-0.1,0.2-0.2,0.4-0.3,0.6  c-0.3,0.6-0.5,1.2-0.7,1.8l-0.3,0.8c-0.2,0.6-0.5,1.2-0.7,1.7c-0.1,0.3-0.2,0.5-0.3,0.7c-0.3,0.8-0.5,1.5-0.8,2.3l-0.1,0.2  c-0.3,0.8-0.5,1.7-0.8,2.5c-0.1,0.3-0.2,0.5-0.2,0.8c-0.2,0.6-0.3,1.1-0.5,1.7c-0.1,0.3-0.2,0.6-0.3,1c-0.1,0.5-0.3,1.1-0.4,1.6  l-0.2,0.9c-0.1,0.6-0.2,1.1-0.4,1.7l-0.2,0.9c-0.1,0.7-0.3,1.4-0.4,2.2c0,0.1,0,0.2,0,0.3c-0.1,0.8-0.2,1.6-0.3,2.5  c0,0.2,0,0.5-0.1,0.7c-0.1,0.6-0.1,1.2-0.2,1.7c0,0.3,0,0.6-0.1,0.8c0,0.6-0.1,1.1-0.1,1.6v0.8c0,0.8-0.1,1.5-0.1,2.3  s0,1.6,0.1,2.4c0,0.2,0,0.4,0,0.7c0,0.5,0.1,1,0.1,1.6c0,0.3,0.1,0.6,0.1,0.9c0,0.4,0.1,0.9,0.2,1.3c0.1,0.4,0.1,0.6,0.1,0.9  c0.1,0.3,0.1,0.8,0.2,1.2l0.2,1c0.1,0.4,0.2,0.7,0.2,1c0,0.3,0.2,0.8,0.3,1.2s0.2,0.6,0.3,0.9c0.1,0.5,0.3,0.9,0.5,1.4  c0.1,0.3,0.2,0.5,0.3,0.7c0.3,0.8,0.6,1.5,0.9,2.2c0.3,0.5,0.5,1.1,0.8,1.6l0,0c0.3,0.5,0.6,1,0.9,1.5l0.2,0.3  c0.2,0.4,0.5,0.7,0.7,1.1c0.1,0.1,0.2,0.3,0.3,0.4c0.2,0.3,0.5,0.6,0.7,0.9l0.3,0.3c0.4,0.4,0.7,0.8,1.1,1.1l0.2,0.1  c0.3,0.3,0.7,0.6,1,0.9c0.1,0.1,0.3,0.2,0.4,0.3l0.9,0.7c0.1,0.1,0.2,0.2,0.4,0.3c0.4,0.3,0.8,0.6,1.3,0.8l-9.8-5.8  c-0.4-0.3-0.9-0.5-1.3-0.8c-0.1-0.1-0.3-0.2-0.4-0.3c-0.3-0.2-0.6-0.4-0.9-0.7c-0.1-0.1-0.3-0.2-0.4-0.3c-0.3-0.3-0.7-0.6-1-0.9  l-0.2-0.2c-0.4-0.4-0.7-0.7-1.1-1.1l-0.3-0.3c-0.3-0.3-0.5-0.6-0.7-0.9l-0.3-0.4c-0.3-0.3-0.5-0.7-0.7-1l-0.2-0.3l-0.1-0.1  c-0.3-0.5-0.6-0.9-0.9-1.4l0,0c-0.3-0.5-0.5-1-0.8-1.5v-0.1c-0.3-0.7-0.6-1.4-0.9-2.2c0-0.1,0-0.1-0.1-0.2  c-0.1-0.2-0.1-0.4-0.2-0.5c-0.2-0.5-0.3-0.9-0.5-1.4c0-0.1-0.1-0.2-0.1-0.4c0-0.2-0.1-0.4-0.1-0.5c-0.1-0.4-0.2-0.8-0.3-1.2  c0-0.2-0.1-0.3-0.1-0.5c0-0.2-0.1-0.4-0.1-0.6c-0.1-0.3-0.1-0.7-0.2-1c0-0.2-0.1-0.4-0.1-0.5c0-0.2-0.1-0.4-0.1-0.6  c0-0.2-0.1-0.6-0.1-0.9c0-0.3-0.1-0.3-0.1-0.5s-0.1-0.5-0.1-0.8l-0.1-0.9v-0.4c0-0.4-0.1-0.8-0.1-1.2c0-0.2,0-0.4,0-0.7  c0-0.1,0-0.1,0-0.2c0-0.7,0-1.4-0.1-2.1v-0.1C597.5,802.4,597.5,801.7,597.5,801z"></path>	<path class="st55" d="M581.4,817.2c0.1,27.7-19.4,61.4-43.5,75.4c-24.1,13.9-43.7,2.7-43.8-25c-0.1-27.7,19.4-61.4,43.4-75.4  C561.5,778.3,581.3,789.5,581.4,817.2z"></path>	<path class="st40" d="M525.6,841.1c-3.7,2.2-7.2,9.7-3.5,11.4c16.3,8.2,0.8,0.4,17.1,8.5c1.1,0.4,2.4,0.3,3.4-0.4  c1.4-0.9,2.5-2.1,3.4-3.5l19.3-32.1c3.5-5.9,0.1-9.5-3.6-7.3c-1.3,0.8-2.4,2-3.2,3.4c-6.2,10.3-9.7,16.2-15.9,26.5  c-15.1-7.6,1.4,0.8-13.6-6.8C527.8,840.4,526.5,840.5,525.6,841.1z"></path>	<path class="st38" d="M484.4,860c0-0.1,0-0.2,0-0.4c0-0.1,0-0.5,0-0.8c0-0.3,0-0.6,0-0.9c0-0.3,0-0.5,0.1-0.7  c0.1-0.2,0.1-0.6,0.1-0.8c0-0.2,0-0.4,0-0.5c0-0.4,0.1-0.8,0.1-1.2c0-0.2,0-0.5,0.1-0.7v-0.2c0.1-0.7,0.2-1.4,0.3-2.2l0,0l0.1-0.3  c0.1-0.6,0.2-1.2,0.3-1.8l0.1-0.3l0.2-0.9l0.2-1c0-0.2,0.1-0.4,0.1-0.6c0.1-0.2,0.1-0.6,0.2-0.9c0.1-0.3,0.1-0.5,0.2-0.7  c0.1-0.2,0.2-0.6,0.2-0.9c0.1-0.3,0.2-0.6,0.3-0.9l0.1-0.5l0.4-1.3l0.2-0.8l0.1-0.2c0.2-0.7,0.5-1.5,0.7-2.2l0,0  c0-0.1,0.1-0.1,0.1-0.2c0.2-0.7,0.5-1.3,0.7-2l0.1-0.3c0.1-0.2,0.2-0.5,0.3-0.7l0.4-1.1l0.3-0.7l0.3-0.8l0.2-0.6  c0.2-0.4,0.3-0.8,0.5-1.2c0.1-0.2,0.2-0.4,0.3-0.6l0.1-0.2c0.3-0.7,0.6-1.4,0.9-2.1c0,0,0-0.1,0.1-0.1c0.1-0.2,0.2-0.4,0.3-0.6  c0.3-0.5,0.5-1.1,0.8-1.6c0-0.1,0.1-0.2,0.1-0.3c0.2-0.4,0.4-0.9,0.7-1.3c0.2-0.4,0.4-0.7,0.5-1l0.1-0.2c0.6-1.1,1.2-2.2,1.9-3.3  c0.1-0.1,0.1-0.2,0.2-0.3c0.2-0.3,0.3-0.6,0.5-0.8c0.3-0.4,0.5-0.9,0.8-1.3c0.3-0.4,0.5-0.8,0.7-1.2c0.3-0.4,0.6-0.9,0.9-1.3  l0.3-0.4c0.1-0.1,0.2-0.3,0.3-0.4c0.8-1.2,1.6-2.3,2.5-3.5l0,0l0,0c0.6-0.8,1.2-1.6,1.8-2.4l0.1-0.1c0.5-0.6,0.9-1.1,1.4-1.7  c0.1-0.1,0.2-0.2,0.3-0.3l0,0c0.6-0.7,1.1-1.3,1.7-2l0.1-0.1l0.5-0.6c0.4-0.4,0.7-0.8,1.1-1.2l0.2-0.2c0.2-0.3,0.5-0.5,0.7-0.8  l0.8-0.9l0.3-0.3l0.8-0.8l0.7-0.7l0.4-0.4l0.9-0.8l0.6-0.6l0.5-0.4l0.9-0.8l0.5-0.5l0.6-0.5l0.9-0.7l0.4-0.4l0.8-0.6l0.8-0.6  l0.3-0.3l1-0.7l0.7-0.5l0.2-0.1c0.6-0.4,1.2-0.8,1.8-1.2l0,0l0.1-0.1c0.6-0.4,1.1-0.7,1.7-1l0.4-0.3c0.5-0.3,0.9-0.5,1.4-0.8  l0.5-0.3l0.7-0.4l0.5-0.3l0.9-0.4l0.6-0.3l0.3-0.1c0.6-0.3,1.2-0.5,1.7-0.7c0.5-0.2,1.2-0.5,1.7-0.7l0.2-0.1l0.6-0.2l0.9-0.3  l0.4-0.1l0.8-0.2c0.2,0,0.4-0.1,0.6-0.2l0.6-0.1l0.8-0.2l0.4-0.1c0.2-0.1,0.5-0.1,0.7-0.1l0.9-0.1l0.3-0.1c0.2,0,0.5,0,0.7-0.1  l0.9-0.1h0.3h0.6h1.1h0.6h0.5c0.5,0,0.9,0,1.4,0.1h0.4l0.6,0.1l0.4,0.1c0.5,0.1,1,0.1,1.5,0.2h0.1l0.4,0.1c0.4,0.1,0.8,0.2,1.2,0.3  l0.6,0.2c0.3,0.1,0.5,0.2,0.8,0.2l0.2,0.1c0.4,0.1,0.8,0.3,1.1,0.5l0.6,0.2c0.5,0.3,1.1,0.5,1.6,0.8l0,0l9.8,5.8  c-0.5-0.3-1-0.6-1.6-0.8l-0.5-0.2c-0.4-0.2-0.8-0.3-1.1-0.5c-0.3-0.2-0.6-0.2-1-0.3l-0.6-0.2c-0.4-0.1-0.8-0.2-1.2-0.3l-0.4-0.1  c-0.5-0.1-1-0.2-1.6-0.3h-0.4l-1-0.1c-0.5,0-0.9,0-1.4-0.1h-0.8h-1.1l-0.9,0.1l-0.9,0.1l-1,0.1l-0.9,0.1l-1.1,0.2l-0.8,0.2  c-0.4,0.1-0.8,0.2-1.2,0.3l-0.8,0.2l-1.3,0.4l-0.6,0.2c-1.3,0.5-2.6,1-4,1.6l-0.6,0.3l-1.4,0.7l-0.7,0.4c-0.6,0.3-1.3,0.7-1.9,1  c-0.6,0.3-1.4,0.8-2.1,1.3l-0.1,0.1c-0.7,0.4-1.4,0.9-2,1.4l-0.7,0.5c-0.4,0.3-0.9,0.6-1.3,1l-0.8,0.6l-1.2,0.9l-0.9,0.7l-1.1,1  l-0.9,0.8l-1.1,1l-0.9,0.8l-1.1,1.1l-0.8,0.8l-1.1,1.2l-0.7,0.8c-0.4,0.5-0.9,0.9-1.3,1.4l-0.5,0.6c-0.6,0.7-1.2,1.4-1.8,2.1  c-0.1,0.1-0.2,0.2-0.3,0.3c-0.5,0.6-1,1.2-1.5,1.8c-0.6,0.8-1.2,1.6-1.8,2.4l0,0c-0.8,1.1-1.7,2.3-2.5,3.5l-0.6,0.8l-0.9,1.3  c-0.3,0.4-0.5,0.8-0.7,1.2l-0.8,1.1l-0.7,1.1c-0.6,1.1-1.3,2.2-1.9,3.3c-0.2,0.4-0.4,0.8-0.6,1.2c-0.2,0.4-0.5,0.9-0.7,1.3  c-0.3,0.6-0.6,1.2-0.9,1.8c-0.1,0.2-0.2,0.4-0.3,0.6c-0.4,0.8-0.7,1.6-1.1,2.4l-0.3,0.6c-0.3,0.6-0.5,1.2-0.8,1.8l-0.3,0.8  c-0.2,0.6-0.5,1.2-0.7,1.7c-0.1,0.3-0.2,0.5-0.3,0.7c-0.3,0.8-0.5,1.5-0.8,2.3l-0.1,0.2c-0.3,0.8-0.5,1.7-0.8,2.5l-0.2,0.8  l-0.5,1.7c-0.1,0.3-0.2,0.6-0.3,0.9c-0.1,0.5-0.3,1.1-0.4,1.6c-0.1,0.3-0.2,0.6-0.2,0.9c-0.1,0.6-0.2,1.1-0.4,1.7  c-0.1,0.3-0.1,0.6-0.2,0.9c-0.1,0.7-0.3,1.4-0.4,2.2L495,857c-0.1,0.8-0.2,1.6-0.3,2.4c0,0.2-0.1,0.5-0.1,0.7  c-0.1,0.6-0.1,1.2-0.2,1.7l-0.1,0.8c0,0.6-0.1,1.1-0.1,1.6c0,0.3,0,0.5,0,0.8c0,0.8-0.1,1.6,0,2.3c0.1,0.8,0,1.6,0.1,2.4  c0,0.2,0,0.4,0,0.7c0,0.5,0.1,1,0.1,1.6c0,0.3,0.1,0.6,0.1,0.9c0,0.3,0.1,0.9,0.2,1.3c0.1,0.4,0.1,0.6,0.1,0.9s0.1,0.8,0.2,1.2  c0.1,0.4,0.1,0.7,0.2,1c0.1,0.3,0.2,0.7,0.2,1c0.1,0.3,0.2,0.8,0.3,1.2c0.1,0.4,0.2,0.6,0.3,0.9c0.1,0.5,0.3,0.9,0.5,1.4  c0.1,0.2,0.2,0.5,0.3,0.7c0.3,0.7,0.6,1.5,0.9,2.2c0.3,0.5,0.5,1.1,0.8,1.6l0,0c0.3,0.5,0.6,1,0.9,1.5c0.1,0.1,0.1,0.2,0.2,0.3  c0.2,0.4,0.5,0.7,0.7,1.1c0.1,0.1,0.2,0.3,0.3,0.4c0.2,0.3,0.5,0.6,0.7,0.9l0.3,0.3c0.4,0.4,0.7,0.8,1.1,1.1l0.2,0.1  c0.3,0.3,0.7,0.6,1,0.9l0.4,0.3l0.9,0.7l0.4,0.3c0.4,0.3,0.8,0.6,1.3,0.8l-9.8-5.8c-0.4-0.3-0.9-0.5-1.3-0.8  c-0.1-0.1-0.3-0.2-0.4-0.3l-0.9-0.7l-0.4-0.3c-0.3-0.3-0.7-0.6-1-0.9c0-0.1-0.1-0.1-0.2-0.2c-0.4-0.4-0.7-0.7-1.1-1.1  c-0.1-0.1-0.2-0.2-0.3-0.3c-0.3-0.3-0.5-0.6-0.7-0.9c-0.1-0.1-0.2-0.3-0.3-0.4c-0.3-0.3-0.5-0.7-0.7-1.1l-0.2-0.3l-0.1-0.1  c-0.3-0.5-0.6-0.9-0.8-1.4l0,0c-0.3-0.5-0.5-1-0.8-1.5v-0.1c-0.3-0.7-0.6-1.4-0.9-2.2c0-0.1-0.1-0.1-0.1-0.2s-0.1-0.4-0.2-0.5  c-0.2-0.5-0.3-0.9-0.5-1.4l-0.1-0.4c0-0.2-0.1-0.4-0.1-0.5c-0.1-0.4-0.2-0.8-0.3-1.2c0-0.2-0.1-0.3-0.1-0.5s-0.1-0.4-0.1-0.6  l-0.2-1c0-0.2-0.1-0.4-0.1-0.5c0-0.2-0.1-0.4-0.1-0.6c0-0.2-0.1-0.6-0.1-0.9c-0.1-0.3-0.1-0.3-0.1-0.5c0-0.2-0.1-0.6-0.1-0.8  c0-0.3-0.1-0.6-0.1-0.9c0-0.1,0-0.2,0-0.4c0-0.4-0.1-0.8-0.1-1.2c0-0.2,0-0.4,0-0.7c0-0.1,0-0.1,0-0.2c0-0.7,0-1.4,0-2.1v-0.1  C484.4,861.4,484.4,860.6,484.4,860z"></path>	<path class="st55" d="M466.2,868.2c0.1,27.7-19.4,61.4-43.4,75.4c-24.1,13.9-43.7,2.7-43.8-25c-0.1-27.7,19.4-61.4,43.5-75.4  C446.5,829.3,466.1,840.5,466.2,868.2z"></path>	<path class="st40" d="M410.4,892.2c-3.7,2.2-7.2,9.7-3.5,11.4c16.3,8.1,0.8,0.4,17.1,8.5c1.1,0.5,2.4,0.3,3.4-0.4  c1.4-0.9,2.5-2.1,3.4-3.5l19.3-32.1c3.5-5.9,0.2-9.5-3.6-7.3c-1.3,0.8-2.4,2-3.2,3.4c-6.2,10.3-9.7,16.2-15.9,26.5  c-15.1-7.6,1.4,0.8-13.6-6.8C412.6,891.5,411.4,891.6,410.4,892.2z"></path>	<path class="st38" d="M369.1,911c0-0.1,0-0.2,0-0.4c0-0.1,0-0.5,0-0.8c0-0.3,0-0.6,0-0.9l0.1-0.7l0.1-0.8c0-0.2,0-0.4,0.1-0.6  c0-0.4,0.1-0.8,0.1-1.2c0-0.2,0.1-0.5,0.1-0.7c0-0.2,0-0.2,0-0.2c0.1-0.7,0.2-1.5,0.3-2.2l0,0c0-0.1,0-0.2,0.1-0.3  c0.1-0.6,0.2-1.2,0.3-1.8c0-0.1,0-0.2,0.1-0.3c0.1-0.3,0.1-0.6,0.2-0.9c0.1-0.3,0.1-0.7,0.2-1.1c0-0.2,0.1-0.4,0.1-0.6  c0-0.2,0.2-0.6,0.2-0.9c0.1-0.3,0.1-0.5,0.2-0.7c0.1-0.2,0.2-0.6,0.2-0.9l0.2-0.9c0.1-0.2,0.1-0.3,0.1-0.5c0.1-0.4,0.2-0.8,0.4-1.3  l0.2-0.8c0-0.1,0-0.1,0.1-0.2c0.2-0.7,0.5-1.5,0.7-2.2l0,0l0.1-0.2c0.2-0.7,0.5-1.3,0.7-2c0-0.1,0.1-0.2,0.1-0.3s0.2-0.5,0.3-0.7  c0.1-0.3,0.3-0.7,0.4-1c0.1-0.3,0.2-0.5,0.3-0.7l0.3-0.8l0.2-0.6l0.5-1.2l0.3-0.6c0-0.1,0.1-0.1,0.1-0.2c0.3-0.7,0.6-1.4,0.9-2.1  v-0.1l0.3-0.6l0.8-1.6c0-0.1,0.1-0.2,0.1-0.3l0.7-1.3l0.5-1c0-0.1,0.1-0.1,0.1-0.2c0.6-1.1,1.2-2.2,1.9-3.3l0.2-0.3  c0.2-0.3,0.3-0.6,0.5-0.8l0.8-1.3l0.8-1.2c0.3-0.4,0.6-0.9,0.8-1.3l0.3-0.4c0.1-0.1,0.2-0.3,0.3-0.4c0.8-1.2,1.6-2.3,2.5-3.5l0,0  l0,0c0.6-0.8,1.2-1.6,1.8-2.4l0.1-0.1c0.5-0.6,0.9-1.1,1.4-1.7l0.3-0.3l0,0c0.5-0.7,1.1-1.3,1.7-2l0.1-0.1c0.2-0.2,0.3-0.4,0.5-0.6  l1.1-1.2l0.2-0.2l0.7-0.8c0.3-0.3,0.5-0.6,0.8-0.9l0.3-0.3c0.3-0.3,0.5-0.5,0.8-0.8l0.7-0.7l0.4-0.4l0.9-0.8l0.6-0.6l0.5-0.4  l0.9-0.8l0.5-0.5l0.6-0.5l0.9-0.7l0.5-0.4c0.2-0.2,0.5-0.4,0.7-0.6l0.8-0.6l0.3-0.3l1-0.7l0.7-0.5l0.2-0.1c0.6-0.4,1.2-0.8,1.8-1.2  l0,0l0.1-0.1c0.6-0.4,1.1-0.7,1.7-1l0.4-0.2c0.5-0.3,0.9-0.5,1.4-0.8l0.5-0.3l0.7-0.4l0.5-0.3c0.3-0.2,0.6-0.3,0.9-0.4l0.6-0.3  l0.3-0.1c0.6-0.3,1.1-0.5,1.7-0.7c0.6-0.2,1.2-0.5,1.7-0.7l0.2-0.1l0.6-0.2l0.9-0.3l0.4-0.1l0.8-0.2l0.6-0.2l0.6-0.1l0.8-0.2  l0.4-0.1l0.7-0.1l0.9-0.1l0.3-0.1l0.7-0.1c0.3,0,0.6-0.1,0.9-0.1h0.3h0.6h1.1h0.3c0.2,0,0.3,0,0.5,0l1.4,0.1h0.4l0.6,0.1h0.4  c0.5,0.1,1,0.2,1.5,0.3h0.1l0.4,0.1c0.4,0.1,0.8,0.2,1.2,0.3l0.6,0.2c0.3,0.1,0.5,0.2,0.8,0.2l0.2,0.1c0.4,0.1,0.8,0.3,1.1,0.5  l0.6,0.2c0.6,0.3,1.1,0.5,1.6,0.8l0,0l9.8,5.8c-0.5-0.3-1.1-0.6-1.6-0.8l-0.6-0.2c-0.4-0.2-0.8-0.3-1.1-0.5  c-0.4-0.1-0.6-0.2-0.9-0.3s-0.4-0.1-0.6-0.2c-0.4-0.1-0.8-0.2-1.2-0.3c-0.1,0-0.3-0.1-0.4-0.1c-0.5-0.1-1-0.2-1.6-0.3h-0.4l-1-0.1  l-1.4-0.1h-0.8h-1.1c-0.3,0-0.6,0-0.9,0l-0.9,0.1c-0.3,0-0.7,0.1-1,0.1l-0.9,0.2c-0.4,0.1-0.7,0.1-1.1,0.2l-0.8,0.2l-1.2,0.3  l-0.8,0.2c-0.4,0.1-0.9,0.3-1.3,0.4l-0.6,0.2c-1.3,0.4-2.6,1-4,1.6l-0.6,0.3c-0.5,0.2-1,0.5-1.4,0.7l-0.7,0.4  c-0.6,0.3-1.3,0.7-1.9,1c-0.6,0.3-1.4,0.8-2.1,1.3l-0.1,0.1c-0.7,0.4-1.4,0.9-2,1.4l-0.7,0.5c-0.4,0.3-0.9,0.6-1.3,1l-0.8,0.6  l-1.4,0.9l-0.9,0.7l-1.1,1l-0.9,0.8c-0.4,0.3-0.7,0.7-1.1,1l-0.9,0.8l-1.1,1.1c-0.3,0.3-0.5,0.5-0.8,0.8c-0.3,0.3-0.8,0.8-1.1,1.2  l-0.7,0.8c-0.4,0.5-0.9,0.9-1.3,1.4l-0.5,0.6c-0.6,0.7-1.2,1.4-1.8,2l-0.3,0.3c-0.5,0.6-1,1.2-1.5,1.8c-0.6,0.8-1.2,1.6-1.8,2.4  l0,0c-0.8,1.1-1.7,2.3-2.5,3.5l-0.6,0.8l-0.8,1.3l-0.8,1.2l-0.8,1.3l-0.7,1.1c-0.6,1.1-1.3,2.2-1.9,3.3L389,880  c-0.2,0.4-0.5,0.9-0.7,1.3c-0.3,0.6-0.6,1.2-0.9,1.8c-0.1,0.2-0.2,0.4-0.3,0.6c-0.4,0.8-0.7,1.6-1.1,2.4l-0.3,0.6l-0.8,1.8  c-0.1,0.3-0.2,0.6-0.3,0.8c-0.2,0.6-0.5,1.2-0.7,1.7c-0.1,0.3-0.2,0.5-0.3,0.7c-0.3,0.8-0.5,1.5-0.8,2.3c0,0.1,0,0.1-0.1,0.2  c-0.3,0.8-0.5,1.7-0.8,2.5l-0.2,0.8c-0.2,0.6-0.3,1.1-0.5,1.7c-0.1,0.3-0.2,0.6-0.3,0.9c-0.1,0.5-0.3,1.1-0.4,1.6  c-0.1,0.3-0.2,0.6-0.2,0.9c-0.1,0.6-0.2,1.1-0.4,1.7c-0.1,0.3-0.1,0.6-0.2,0.9c-0.1,0.7-0.3,1.4-0.4,2.2c0,0.1,0,0.2-0.1,0.3  c-0.1,0.8-0.2,1.6-0.3,2.4c0,0.2-0.1,0.5-0.1,0.7c-0.1,0.6-0.1,1.2-0.2,1.7c0,0.3-0.1,0.6-0.1,0.8c0,0.5-0.1,1.1-0.1,1.6  c0,0.3,0,0.5,0,0.8c0,0.8,0,1.6,0,2.3c0,0.8,0,1.6,0.1,2.4c0,0.2,0,0.4,0,0.7c0,0.5,0.1,1,0.1,1.6l0.1,0.9c0,0.4,0.1,0.9,0.2,1.3  c0.1,0.4,0.1,0.6,0.1,0.9c0.1,0.3,0.1,0.8,0.2,1.2c0.1,0.4,0.1,0.7,0.2,1c0.1,0.3,0.2,0.7,0.2,1l0.3,1.2c0.1,0.3,0.2,0.6,0.3,0.9  c0.2,0.5,0.3,0.9,0.5,1.4c0.1,0.2,0.2,0.5,0.3,0.7c0.3,0.8,0.6,1.5,0.9,2.2c0.3,0.5,0.5,1.1,0.8,1.6l0,0c0.3,0.5,0.6,1,0.9,1.5  l0.2,0.3c0.2,0.4,0.5,0.7,0.7,1l0.3,0.4c0.2,0.3,0.5,0.6,0.7,0.9l0.3,0.3c0.3,0.4,0.7,0.8,1.1,1.1l0.2,0.2c0.3,0.3,0.7,0.6,1,0.9  l0.4,0.3c0.3,0.2,0.6,0.5,0.9,0.7l0.4,0.3c0.4,0.3,0.8,0.6,1.3,0.8l-9.8-5.8c-0.4-0.3-0.9-0.5-1.3-0.8c-0.1-0.1-0.2-0.2-0.4-0.3  c-0.3-0.2-0.6-0.4-0.9-0.7l-0.4-0.3c-0.3-0.3-0.7-0.6-1-0.9l-0.2-0.1c-0.4-0.4-0.7-0.7-1.1-1.1l-0.3-0.3c-0.3-0.3-0.5-0.6-0.7-0.9  l-0.3-0.4c-0.3-0.4-0.5-0.7-0.7-1.1c-0.1-0.1-0.1-0.2-0.2-0.3l0.2-0.1c-0.3-0.5-0.6-0.9-0.8-1.4l0,0c-0.3-0.5-0.5-1-0.8-1.5v-0.1  c-0.3-0.7-0.6-1.4-0.9-2.2c0-0.1,0-0.1-0.1-0.2c-0.1-0.2-0.1-0.4-0.2-0.5c-0.2-0.4-0.3-0.9-0.5-1.4c0-0.1-0.1-0.2-0.1-0.4  c0-0.1-0.1-0.4-0.1-0.5c-0.1-0.4-0.2-0.8-0.3-1.2c0-0.2-0.1-0.3-0.1-0.5s-0.1-0.4-0.1-0.5c-0.1-0.3-0.1-0.7-0.2-1  c0-0.2-0.1-0.3-0.1-0.5l-0.1-0.6c-0.1-0.3-0.1-0.6-0.1-0.9c0-0.2-0.1-0.3-0.1-0.5c0-0.2-0.1-0.6-0.1-0.8l-0.1-0.9  c0-0.1,0-0.2,0-0.4c0-0.4-0.1-0.8-0.1-1.2c0-0.2,0-0.4,0-0.7c0-0.1,0-0.1,0-0.2c0-0.7-0.1-1.4-0.1-2.1v0.1  C369.1,912.3,369.1,911.7,369.1,911z"></path></g><rect id="Rectangle_4_1_" class="st56" width="1024" height="1024"></rect></svg>