<svg xmlns="http://www.w3.org/2000/svg" width="80" height="80" viewBox="0 0 80 80"><g id="Group_61" data-name="Group 61" transform="translate(-105.706 -32.86)"><g id="Group_58" data-name="Group 58"><path id="Path_111" data-name="Path 111" d="M168.775,112.86h-46.12a3.418,3.418,0,0,1-3.418-3.419V36.279a3.418,3.418,0,0,1,3.418-3.419h46.12a3.419,3.419,0,0,1,3.419,3.419v73.162A3.419,3.419,0,0,1,168.775,112.86Z" fill="#e3edf0"></path><path id="Path_112" data-name="Path 112" d="M131.106,32.86l3.522,6.782a3.6,3.6,0,0,0,3.2,1.944H153.6a3.6,3.6,0,0,0,3.2-1.944l3.521-6.782Z" fill="#4c97e3"></path></g><g id="Group_59" data-name="Group 59"><path id="Path_113" data-name="Path 113" d="M135.167,81.809H109.125a3.419,3.419,0,0,1-3.419-3.419V57.839a3.419,3.419,0,0,1,3.419-3.419h26.042a3.419,3.419,0,0,1,3.419,3.419V78.39A3.419,3.419,0,0,1,135.167,81.809Z" fill="#f6576e"></path><path id="Path_114" data-name="Path 114" d="M118.111,74.781V61.448l9.9,6.667Z" fill="#fff"></path></g><g id="Group_60" data-name="Group 60"><path id="Path_115" data-name="Path 115" d="M151,73.582h34.706V99.176H151Z" fill="#141f72"></path><path id="Path_116" data-name="Path 116" d="M168.353,88.316,151,73.582h34.706Z" fill="#4c97e3"></path></g></g></svg>