<svg xmlns="http://www.w3.org/2000/svg" width="77.949" height="80" viewBox="0 0 77.949 80"><g id="Group_57" data-name="Group 57" transform="translate(-238.31 -32.86)"><g id="Group_53" data-name="Group 53"><path id="Path_101" data-name="Path 101" d="M286.6,52.219H241.729a3.419,3.419,0,0,0-3.419,3.419v53.8a3.419,3.419,0,0,0,3.419,3.419H286.6a3.419,3.419,0,0,0,3.419-3.419v-53.8A3.419,3.419,0,0,0,286.6,52.219Z" fill="#ff9041"></path><g id="Group_52" data-name="Group 52"><path id="Path_102" data-name="Path 102" d="M279.321,88.3h-30.27a2.051,2.051,0,0,1,0-4.1H279.32a2.051,2.051,0,1,1,0,4.1Z" fill="#fff"></path><path id="Path_103" data-name="Path 103" d="M279.321,100.784h-30.27a2.051,2.051,0,0,1,0-4.1H279.32a2.051,2.051,0,1,1,0,4.1Z" fill="#fff"></path><path id="Path_104" data-name="Path 104" d="M274.982,73.852h-9.73a2.051,2.051,0,1,1,0-4.1h9.73a2.051,2.051,0,1,1,0,4.1Z" fill="#fff"></path><path id="Path_105" data-name="Path 105" d="M250.837,67.585c0-.483.447-.772,1.2-.772a6.063,6.063,0,0,1,3.046,1.113l1.145-3.1a5.988,5.988,0,0,0-2.787-1.162V61.606h-3.025v2.246a4.078,4.078,0,0,0-3.139,3.973c0,2.49,1.964,3.592,3.9,4.341,1.551.62,1.672,1.1,1.672,1.5,0,.605-.593,1.012-1.469,1.012a5.993,5.993,0,0,1-3.4-1.386L246.83,76.46a8.924,8.924,0,0,0,3.4,1.4v2.072h3.2V77.675a4.42,4.42,0,0,0,3.126-4.149c0-2.094-1.188-3.494-3.784-4.54-1.8-.736-1.942-1.045-1.942-1.4Z" fill="#fff"></path></g></g><g id="Group_56" data-name="Group 56"><g id="Group_54" data-name="Group 54"><path id="Path_106" data-name="Path 106" d="M316.259,42.994a3.567,3.567,0,0,0-3.566-3.567H278.4a3.566,3.566,0,0,0-3.566,3.567v8.153h41.425Z" fill="#141f72"></path><path id="Path_107" data-name="Path 107" d="M274.834,51.147v24.03a3.566,3.566,0,0,0,3.566,3.568h24.108l13.751-13.684V51.147Z" fill="#e3edf0"></path></g><path id="Path_108" data-name="Path 108" d="M316.188,65.061h-13.68V78.745Z" fill="#a3b5be"></path><g id="Group_55" data-name="Group 55"><path id="Path_109" data-name="Path 109" d="M305.353,45.88a2.051,2.051,0,0,1-2.051-2.051V34.911a2.051,2.051,0,1,1,4.1,0v8.918A2.051,2.051,0,0,1,305.353,45.88Z" fill="#4c97e3"></path><path id="Path_110" data-name="Path 110" d="M285.739,45.88a2.051,2.051,0,0,1-2.051-2.051V34.911a2.051,2.051,0,0,1,4.1,0v8.918A2.051,2.051,0,0,1,285.739,45.88Z" fill="#4c97e3"></path></g></g></g></svg>