<svg xmlns="http://www.w3.org/2000/svg" id="Group_51" data-name="Group 51" width="80" height="80" viewBox="0 0 80 80"><g id="Group_47" data-name="Group 47"><path id="Path_95" data-name="Path 95" d="M62.29,25.542V18.4l-5.149-1.239a17.263,17.263,0,0,0-1.56-3.717l2.761-4.477L53.215,3.921l-4.534,2.71a17.845,17.845,0,0,0-3.77-1.546L43.649,0H36.4L35.14,5.07a17.9,17.9,0,0,0-3.775,1.536L26.819,3.888,21.692,8.936,24.444,13.4a17.325,17.325,0,0,0-1.57,3.712L17.71,18.355V25.5l5.149,1.239a17.263,17.263,0,0,0,1.56,3.717l-2.761,4.476,5.127,5.049,4.534-2.711a17.8,17.8,0,0,0,3.77,1.547L36.351,43.9H43.6l1.259-5.071a17.889,17.889,0,0,0,3.774-1.535l4.546,2.718,5.127-5.049L55.556,30.5a17.283,17.283,0,0,0,1.57-3.712Z" fill="#ff9041"></path><ellipse id="Ellipse_11" data-name="Ellipse 11" cx="7.649" cy="7.66" rx="7.649" ry="7.66" transform="translate(32.351 14.289)" fill="#fff"></ellipse></g><g id="Group_50" data-name="Group 50"><g id="Group_48" data-name="Group 48"><path id="Path_96" data-name="Path 96" d="M74.224,72.454H5.776V28.77a3.419,3.419,0,0,1,3.419-3.419h61.61a3.419,3.419,0,0,1,3.419,3.419Z" fill="#e3edf0"></path><path id="Path_97" data-name="Path 97" d="M76.347,80H3.653A3.654,3.654,0,0,1,0,76.347V65.72H27.183l2.191,5.434H50.588l2.19-5.434H80V76.347A3.654,3.654,0,0,1,76.347,80Z" fill="#141f72"></path></g><g id="Group_49" data-name="Group 49"><path id="Path_98" data-name="Path 98" d="M19.245,48.276l13.143,6.769V50.9l-7.86-3.939,7.86-3.94V38.873L19.245,45.642Z" fill="#a3b5be"></path><path id="Path_99" data-name="Path 99" d="M34.682,55.27h3.97L46.1,35.992h-4Z" fill="#a3b5be"></path><path id="Path_100" data-name="Path 100" d="M47.612,38.876v4.146l7.915,3.937L47.612,50.9v4.146L60.755,48.3V45.617Z" fill="#a3b5be"></path></g></g></svg>